<svg xmlns="http://www.w3.org/2000/svg" viewBox="0 0 109.62 73.55"><defs><style>.cls-1{fill:#a72126}.cls-2{fill:#231815}.cls-4{fill:#fff}</style></defs><g id="레이어_2" data-name="레이어 2"><g id="레이어_1-2" data-name="레이어 1"><path class="cls-1" d="M25.65 16.12v.47a8.34 8.34 0 01-2.3 6A7.5 7.5 0 0117.7 25a7.48 7.48 0 01-5.64-2.42 8.62 8.62 0 01-1.69-2.74 9.35 9.35 0 01-.56-3.29 8.24 8.24 0 01.61-3.19 8.46 8.46 0 01.76-1.43 9.37 9.37 0 011.06-1.31 7.33 7.33 0 012.53-1.76 8.62 8.62 0 013.12-.56 7.09 7.09 0 014.29 1.29A8 8 0 0125 13.25h-3.66a5 5 0 00-1.58-1.31 4.62 4.62 0 00-2-.43 4.45 4.45 0 00-3.4 1.49A5.16 5.16 0 0013 16.62a5.14 5.14 0 001.38 3.64 4.55 4.55 0 003.45 1.49 4.27 4.27 0 002.53-.82 4.44 4.44 0 001.69-2.12H16v-2.69z"/><path class="cls-2" d="M27.42 17.29h7.77v2.6h-7.77zm23.92-3.93h-3.68A5.05 5.05 0 0046.07 12a4.43 4.43 0 00-2-.45A4.33 4.33 0 0040.7 13a5.18 5.18 0 00-1.37 3.64 5.21 5.21 0 001.37 3.64 4.48 4.48 0 003.38 1.49 4.18 4.18 0 002-.45 4.08 4.08 0 001.5-1.27h3.66a9.76 9.76 0 01-1.27 2.15 7.42 7.42 0 01-1.6 1.53 7.75 7.75 0 01-9.85-1.17 8.41 8.41 0 01-1.26-1.74 8.26 8.26 0 01-.75-2.05 10.32 10.32 0 01-.25-2.24 8.39 8.39 0 01.61-3.19 8.8 8.8 0 011.8-2.74 8 8 0 012.43-1.74 7.76 7.76 0 013-.58 8.21 8.21 0 012.33.31 6.54 6.54 0 012 .95A7.27 7.27 0 0150 11.1a11.43 11.43 0 011.34 2.26m3.62 1.72l.02-6.48h9.7v2.82h-6.7v3.66h5.31v2.78h-5.31v3.98h6.7v2.82h-9.7l-.02-6.8m11.97-1.81L67 8.6h6a6.14 6.14 0 014.19 1.33 4.6 4.6 0 011.49 3.69 4.15 4.15 0 01-.23 1.48 5.3 5.3 0 01-.76 1.31 4.09 4.09 0 01-1.42 1.11 6.73 6.73 0 01-1.83.65l3.16 6.49h-3.33l-3.14-6.38-1.13.08v6.3h-3v-6.19m3-2.42h.65a15.5 15.5 0 002.35-.19 4.14 4.14 0 001.68-.51 3.06 3.06 0 00.75-.71 1.74 1.74 0 00.2-.93 2.18 2.18 0 00-.77-1.87 2.39 2.39 0 00-.86-.34 14.09 14.09 0 00-1.43-.2c-.54-.05-1-.08-1.44-.08H70zM88.24 8.6v2.82h-2.91v13.24h-3.01V11.42h-2.9V8.6h8.82z"/><path d="M108.81 18.76c0 9.77-7.24 17.69-16.18 17.69H17C8.06 36.45.81 28.53.81 18.76S8.06 1.06 17 1.06h75.63c8.94 0 16.18 7.94 16.18 17.7z" fill="none" stroke="#a72126" stroke-width="1.62"/><path class="cls-2" d="M90.39 13.74S95.2 7.19 97.81 9c0 0 2.21 3.56-3.52 9 0 0-3 4 1.44 2 0 0 3.9-2.85 1.43.85 0 0-4.56 5.41-7 2.28 0 0-2.74-2.42 3.38-8.54 0 0 3.65-3.28-.52-1.57 0 0-4.55 2.85-2.6.72"/><path class="cls-1" d="M101.53 5.58a3 3 0 01-4.41.58 3.68 3.68 0 01-.34-4.84 3 3 0 014.42-.58 3.66 3.66 0 01.33 4.84"/><path class="cls-4" d="M98.87 2.53a.6.6 0 01-.91.08.74.74 0 01-.11-1 .61.61 0 01.92-.08.75.75 0 01.1 1"/><path class="cls-1" d="M30.43 30.47h65.62v10.96H30.43z"/><path class="cls-4" d="M36.51 36.48a2.12 2.12 0 01.2 1.11 2.27 2.27 0 01-.59 1.34 2 2 0 01-3-.23 2.73 2.73 0 01-.56-1.7h1a1.43 1.43 0 00.34 1 1 1 0 00.81.39.91.91 0 001-.76.71.71 0 00-.07-.52 1.15 1.15 0 00-.34-.38 2.24 2.24 0 00-.71-.28 3 3 0 01-.76-.27 2 2 0 01-.8-.73 2 2 0 01-.25-1.14 2.33 2.33 0 01.5-1.25 1.64 1.64 0 011.4-.6 1.56 1.56 0 011.5.82 2.89 2.89 0 01.42 1.48h-1a1.63 1.63 0 00-.23-.81.83.83 0 00-.72-.33.82.82 0 00-.67.25.91.91 0 00-.2.51.65.65 0 00.19.51 1.48 1.48 0 00.43.31 3.24 3.24 0 00.67.23 2.87 2.87 0 01.83.37 1.75 1.75 0 01.61.72m3.34.37v2.39h-.98v-2.35l-1.83-4.28h1.08l1.24 2.85 1.22-2.85h1.09l-1.82 4.24zm6.08-.41a2.12 2.12 0 01.2 1.11 2.27 2.27 0 01-.59 1.34 2 2 0 01-3-.23A2.73 2.73 0 0142 37h1a1.43 1.43 0 00.34 1 1 1 0 00.81.39 1 1 0 00.69-.22 1 1 0 00.31-.54.76.76 0 00-.08-.52 1 1 0 00-.34-.38 2.24 2.24 0 00-.71-.28 3 3 0 01-.76-.27 2 2 0 01-.8-.73 2 2 0 01-.25-1.14 2.42 2.42 0 01.5-1.25 1.64 1.64 0 011.4-.6 1.56 1.56 0 011.5.82 2.89 2.89 0 01.39 1.44h-1a1.54 1.54 0 00-.23-.81 1 1 0 00-1.39-.08 1 1 0 00-.2.51.69.69 0 00.19.51 1.48 1.48 0 00.43.31 3.24 3.24 0 00.67.23 2.87 2.87 0 01.83.37 1.75 1.75 0 01.61.72m3.03-2.64v5.44h-.99l.01-5.46h-1.59v-1.13h4.15v1.15h-1.58zm2.25 5.41v-6.56h3.66l.01 1.16h-2.69v1.48l2.55.01v1.14h-2.55v1.63h2.75v1.16l-3.73-.02zm8.37.03l.01-3.66h-.04l-.91 3.65h-1.08l-.89-3.58-.04.02v3.54l-.97.02v-6.61h1.12l1.32 4.94 1.29-4.94h1.18v6.62h-.99zm8.02-2.8a2.23 2.23 0 01.2 1.11 2.33 2.33 0 01-.59 1.34 2 2 0 01-3-.23 2.73 2.73 0 01-.56-1.7h1a1.49 1.49 0 00.34 1 1.06 1.06 0 00.82.39.93.93 0 00.68-.22 1 1 0 00.31-.54.71.71 0 00-.08-.52 1 1 0 00-.34-.38 2.07 2.07 0 00-.71-.28 3 3 0 01-.75-.27 1.89 1.89 0 01-.8-.73 1.93 1.93 0 01-.25-1.14 2.26 2.26 0 01.5-1.25 1.62 1.62 0 011.39-.6 1.57 1.57 0 011.51.82 2.87 2.87 0 01.41 1.48h-1a1.45 1.45 0 00-.23-.81.8.8 0 00-.71-.33.79.79 0 00-.67.25.91.91 0 00-.2.51.64.64 0 00.18.51 1.62 1.62 0 00.43.31 3.46 3.46 0 00.67.23 2.65 2.65 0 01.83.37 1.77 1.77 0 01.62.72m.87 2.73v-6.56h3.66l.01 1.16h-2.69v1.48l2.55.01v1.14h-2.55v1.63h2.74v1.16l-3.72-.02zm7.55.02l-1.41-2.5h-.68v2.5h-1v-6.59H75a1.66 1.66 0 011.26.58 2 2 0 01.53 1.41 2.41 2.41 0 01-.33 1.23 1.64 1.64 0 01-.79.74l1.48 2.63zm-.45-3.92a.9.9 0 00.26-.68.74.74 0 00-.26-.62 1 1 0 00-.63-.2h-1v1.75h1a.87.87 0 00.63-.25m4.69 3.92h-1.09l-1.96-6.62h1l1.5 5.03 1.5-5.03h1.01l-1.96 6.62zm2.48-.02v-6.6h.98v6.62l-.98-.02zM89 37a4.1 4.1 0 01-.7 1.64 1.79 1.79 0 01-1.58.82 2 2 0 01-1.74-1 4.51 4.51 0 01-.65-2.46 4.37 4.37 0 01.67-2.53 2 2 0 011.74-1 1.79 1.79 0 011.61.83 3.94 3.94 0 01.65 1.59h-1a2.18 2.18 0 00-.37-.81.93.93 0 00-.82-.4 1.12 1.12 0 00-1 .63 3.18 3.18 0 00-.45 1.69 3.27 3.27 0 00.37 1.68 1.1 1.1 0 001 .65.94.94 0 00.82-.43A2.82 2.82 0 0088 37zm.67 2.25v-6.56h3.66l.01 1.16h-2.69v1.48l2.55.01v1.14h-2.55v1.63h2.74v1.16l-3.72-.02z"/><path class="cls-2" d="M3.38 73.43v-7.2h1.45v7.2zm2.47-2.35L7.26 71a1.74 1.74 0 00.52 1 1.58 1.58 0 001 .34A1.61 1.61 0 009.89 72a.87.87 0 00.35-.7.69.69 0 00-.14-.43 1.23 1.23 0 00-.53-.31c-.17-.06-.56-.16-1.16-.31a4 4 0 01-1.64-.72 1.85 1.85 0 01-.66-1.44 1.83 1.83 0 01.31-1 2 2 0 01.9-.73 3.52 3.52 0 011.41-.25 3 3 0 012 .59 2.09 2.09 0 01.72 1.59l-1.45.06a1.27 1.27 0 00-.4-.8 1.49 1.49 0 00-.92-.24 1.69 1.69 0 00-1 .26.51.51 0 00-.18.43.54.54 0 00.21.43 3.78 3.78 0 001.34.49 7.37 7.37 0 011.57.51 2.14 2.14 0 01.79.73 2.18 2.18 0 01.29 1.15 2.13 2.13 0 01-.35 1.16 2 2 0 01-1 .8 4 4 0 01-1.56.26 3.14 3.14 0 01-2.1-.63 2.7 2.7 0 01-.84-1.82zm6.77-1.21A4.55 4.55 0 0113 68a3.53 3.53 0 01.67-1 3 3 0 01.93-.65 4 4 0 011.55-.28 3.39 3.39 0 012.55 1 3.79 3.79 0 011 2.74 3.71 3.71 0 01-1 2.72 3.33 3.33 0 01-2.53 1 3.39 3.39 0 01-2.55-1 3.72 3.72 0 01-1-2.66zm1.5-.05a2.74 2.74 0 00.56 1.86 1.86 1.86 0 001.44.63 1.8 1.8 0 001.42-.63 2.76 2.76 0 00.56-1.88 2.7 2.7 0 00-.54-1.8 1.82 1.82 0 00-1.44-.61 1.86 1.86 0 00-1.45.62 2.69 2.69 0 00-.55 1.81zM20 73.55l1.78-7.44h1L21 73.55zm3.48-.12v-7.2h1.45v7.2zm2.84 0v-7.2h5.33v1.22h-3.88V69h3.61v1.22h-3.61v1.95h4v1.22zm11.3-2.65l1.41.45A3.16 3.16 0 0138 73a3.38 3.38 0 01-4.26-.41 3.73 3.73 0 01-.93-2.68 4 4 0 01.93-2.79 3.19 3.19 0 012.44-1 3 3 0 012.14.78 2.81 2.81 0 01.68 1.31l-1.44.35a1.53 1.53 0 00-.53-.89 1.56 1.56 0 00-1-.32 1.63 1.63 0 00-1.3.57 2.85 2.85 0 00-.5 1.86 3 3 0 00.49 2 1.62 1.62 0 001.28.58 1.46 1.46 0 001-.37 2.13 2.13 0 00.62-1.21zm9.8 1.36v1.29h-4.83a3.29 3.29 0 01.47-1.38 9.38 9.38 0 011.55-1.73 9.62 9.62 0 001.14-1.17 1.55 1.55 0 00.25-.85 1 1 0 00-.25-.71 1 1 0 00-.69-.24.89.89 0 00-.68.26 1.34 1.34 0 00-.3.86l-1.37-.14a2.24 2.24 0 01.77-1.63 2.59 2.59 0 011.62-.5 2.29 2.29 0 011.67.58 1.86 1.86 0 01.61 1.42 2.6 2.6 0 01-.17.93 3.72 3.72 0 01-.56.92 7.91 7.91 0 01-.9.92c-.43.4-.71.66-.83.79a2.82 2.82 0 00-.28.38zm.93-4.53v-1.28h4.72v1A7.19 7.19 0 0051.88 69a9.81 9.81 0 00-.88 2.26 8.71 8.71 0 00-.31 2.17h-1.37a9.4 9.4 0 01.61-3.05 10.28 10.28 0 011.56-2.77zm7.92-1.41a2 2 0 011.64.75 4.81 4.81 0 01.7 2.93 4.75 4.75 0 01-.71 2.93 2 2 0 01-1.63.74 2.05 2.05 0 01-1.69-.81 4.78 4.78 0 01-.64-2.88 4.75 4.75 0 01.7-2.92 2 2 0 011.63-.74zm0 1.15a.69.69 0 00-.45.16 1 1 0 00-.3.57 8.13 8.13 0 00-.14 1.8 7.54 7.54 0 00.13 1.74 1.22 1.22 0 00.32.63.69.69 0 00.44.15.72.72 0 00.45-.15 1.09 1.09 0 00.3-.58 7.51 7.51 0 00.14-1.79 8.24 8.24 0 00-.16-1.74 1.29 1.29 0 00-.32-.63.67.67 0 00-.41-.16zm5.59-1.15a2 2 0 011.63.75 4.73 4.73 0 01.71 2.93 4.75 4.75 0 01-.71 2.93 2 2 0 01-1.63.74 2.05 2.05 0 01-1.69-.81 4.77 4.77 0 01-.65-2.88 4.74 4.74 0 01.71-2.92 2 2 0 011.63-.74zm0 1.15a.67.67 0 00-.45.16 1 1 0 00-.3.57 7.55 7.55 0 00-.14 1.8 8.37 8.37 0 00.12 1.74 1.3 1.3 0 00.33.63.67.67 0 00.44.15.72.72 0 00.45-.15 1.09 1.09 0 00.3-.58 7.51 7.51 0 00.14-1.79 8.24 8.24 0 00-.12-1.74 1.21 1.21 0 00-.33-.63.65.65 0 00-.44-.16zm6.79 6.08h-1.38v-5.2a4.75 4.75 0 01-1.78 1V68a3.76 3.76 0 001.17-.67 2.58 2.58 0 00.87-1.15h1.12zm2.62-3.84v-1.38h1.37v1.38zm0 3.84v-1.38h1.37v1.38zm7.44-1.29v1.29h-4.83a3.16 3.16 0 01.47-1.38 9 9 0 011.55-1.73 9.62 9.62 0 001.1-1.17 1.53 1.53 0 00.28-.85 1 1 0 00-.24-.71 1 1 0 00-.69-.24.88.88 0 00-.68.26 1.34 1.34 0 00-.3.86L74 68.33a2.24 2.24 0 01.77-1.63 2.59 2.59 0 011.62-.5 2.31 2.31 0 011.67.58 1.86 1.86 0 01.61 1.42 2.41 2.41 0 01-.18.93 3.66 3.66 0 01-.55.92 8.86 8.86 0 01-.9.92c-.44.4-.71.66-.83.79a2.82 2.82 0 00-.28.38zM82 66.2a2 2 0 011.6.8 4.73 4.73 0 01.71 2.93 4.75 4.75 0 01-.71 2.93 2 2 0 01-1.63.74 2.05 2.05 0 01-1.69-.81 4.78 4.78 0 01-.64-2.88 4.75 4.75 0 01.7-2.92A2 2 0 0182 66.2zm0 1.15a.69.69 0 00-.45.16 1 1 0 00-.3.57 8.13 8.13 0 00-.14 1.8 7.54 7.54 0 00.13 1.74 1.22 1.22 0 00.32.63.69.69 0 00.44.15.72.72 0 00.45-.15 1.09 1.09 0 00.3-.58 7.51 7.51 0 00.14-1.79 8.24 8.24 0 00-.12-1.74 1.29 1.29 0 00-.32-.63.67.67 0 00-.45-.16zm6.76 6.08h-1.38v-5.2a4.75 4.75 0 01-1.78 1V68a3.76 3.76 0 001.17-.67 2.58 2.58 0 00.87-1.15h1.12zm2.01-1.91l1.33-.17a1.29 1.29 0 00.35.78.92.92 0 00.67.27.9.9 0 00.72-.32 1.24 1.24 0 00.29-.87 1.18 1.18 0 00-.28-.83.88.88 0 00-.68-.3 2.32 2.32 0 00-.63.1l.15-1.12a1.24 1.24 0 00.86-.24.9.9 0 00.29-.69.74.74 0 00-.79-.79.81.81 0 00-.6.24 1.17 1.17 0 00-.31.72l-1.27-.22a2.86 2.86 0 01.4-1 1.75 1.75 0 01.75-.61 2.47 2.47 0 011.07-.23 2.15 2.15 0 011.63.65 1.65 1.65 0 01-.53 2.71 1.68 1.68 0 011 .59 1.78 1.78 0 01.37 1.12 2.15 2.15 0 01-.69 1.61 2.59 2.59 0 01-3.35.11 2.27 2.27 0 01-.75-1.51zM7.61 53.84v-1.21h3.13v2.87a4.07 4.07 0 01-1.32.77 4.75 4.75 0 01-1.76.34 4 4 0 01-2-.47 3.13 3.13 0 01-1.26-1.36 4.35 4.35 0 01-.4-1.91 4.19 4.19 0 01.47-2 3.25 3.25 0 011.38-1.34 3.71 3.71 0 011.72-.36 3.49 3.49 0 012.1.56 2.61 2.61 0 011 1.56l-1.45.27a1.48 1.48 0 00-.57-.84 1.76 1.76 0 00-1.05-.31 1.94 1.94 0 00-1.53.59 2.56 2.56 0 00-.56 1.79 2.82 2.82 0 00.57 1.92 1.88 1.88 0 001.49.64 2.46 2.46 0 00.91-.18 3.11 3.11 0 00.79-.43v-.92zM12 56.49v-7.2h1.46v7.2zm2.5-2.34l1.41-.15a1.74 1.74 0 00.52 1 1.53 1.53 0 001.05.34 1.6 1.6 0 001.06-.3.88.88 0 00.36-.69.67.67 0 00-.15-.44 1.25 1.25 0 00-.52-.31c-.17-.06-.56-.16-1.17-.31a4.09 4.09 0 01-1.64-.71 1.88 1.88 0 01-.66-1.45 1.91 1.91 0 01.31-1 2 2 0 01.9-.73 3.72 3.72 0 011.42-.25 3 3 0 012 .6 2.08 2.08 0 01.71 1.58l-1.45.06a1.17 1.17 0 00-.4-.79 1.4 1.4 0 00-.92-.25 1.69 1.69 0 00-1 .26.55.55 0 000 .89 3.87 3.87 0 001.37.5 6.6 6.6 0 011.57.52 1.92 1.92 0 01.79.73 2.14 2.14 0 01.29 1.14 2.12 2.12 0 01-.35 1.16 2.07 2.07 0 01-1 .8 4 4 0 01-1.57.26 3.09 3.09 0 01-2.05-.61 2.75 2.75 0 01-.88-1.85zm6.91.42v-1.38h2.7v1.38zm5.91 1.92V55h-2.95v-1.17l3.12-4.56h1.16v4.56h.89V55h-.89v1.45zm0-2.66v-2.46l-1.66 2.46zm6.41 2.66h-1.38v-5.2a4.83 4.83 0 01-1.78 1.05v-1.25a4.21 4.21 0 001.17-.67 2.64 2.64 0 00.87-1.15h1.12zm6.72-1.28v1.28h-4.84a3.43 3.43 0 01.47-1.38 9.22 9.22 0 011.56-1.72 9.44 9.44 0 001.14-1.18 1.53 1.53 0 00.28-.84 1 1 0 00-.24-.71 1.06 1.06 0 00-1.38 0 1.34 1.34 0 00-.29.86l-1.37-.14a2.22 2.22 0 01.77-1.63 2.58 2.58 0 011.62-.49 2.35 2.35 0 011.67.57 1.9 1.9 0 01.61 1.43 2.39 2.39 0 01-.18.92 3.66 3.66 0 01-.55.92 10.07 10.07 0 01-.9.92c-.44.4-.71.66-.83.79a1.9 1.9 0 00-.28.39zm.88-.63l1.33-.16a1.29 1.29 0 00.35.78.92.92 0 00.67.27.91.91 0 00.72-.33 1.21 1.21 0 00.3-.87 1.18 1.18 0 00-.28-.82.89.89 0 00-.69-.31 2.88 2.88 0 00-.63.1l.15-1.12a1.23 1.23 0 00.86-.24.88.88 0 00.29-.69.73.73 0 00-.79-.79.83.83 0 00-.6.24 1.2 1.2 0 00-.31.72l-1.27-.22a2.86 2.86 0 01.4-1 1.82 1.82 0 01.75-.61 2.47 2.47 0 011.07-.22 2.14 2.14 0 011.63.64 1.65 1.65 0 01-.53 2.71 1.74 1.74 0 011 .59 1.72 1.72 0 01.37 1.12 2.15 2.15 0 01-.69 1.61 2.58 2.58 0 01-3.34.11 2.24 2.24 0 01-.76-1.51zm5.77-.01v-1.38h2.71v1.38zm3.47 1.92v-7.2H52v7.2zM58 53.84l1.41.45A3.21 3.21 0 0158.34 56a3.38 3.38 0 01-4.26-.41 3.72 3.72 0 01-.93-2.59 3.91 3.91 0 01.93-2.78 3.16 3.16 0 012.44-1 3 3 0 012.14.78 2.8 2.8 0 01.74 1.33l-1.4.29a1.48 1.48 0 00-.53-.88 1.51 1.51 0 00-1-.33 1.61 1.61 0 00-1.3.58 2.82 2.82 0 00-.5 1.86 3 3 0 00.49 1.94 1.59 1.59 0 001.28.58 1.43 1.43 0 001-.37 2.09 2.09 0 00.56-1.16z"/></g></g></svg>