<svg xmlns="http://www.w3.org/2000/svg" viewBox="0 0 111.62 87.2"><defs><style>.cls-1{fill:#a72126}.cls-2{fill:#231815}.cls-4{fill:#fff}</style></defs><g id="레이어_2" data-name="레이어 2"><g id="레이어_1-2" data-name="레이어 1"><path class="cls-1" d="M26.11 16.42v.25a.59.59 0 000 .23 8.48 8.48 0 01-2.32 6.1A7.63 7.63 0 0118 25.44 7.65 7.65 0 0112.27 23a8.86 8.86 0 01-1.72-2.79 9.52 9.52 0 01-.55-3.38 8.35 8.35 0 01.62-3.24 7.79 7.79 0 01.77-1.46 9 9 0 011.08-1.33A7.73 7.73 0 0115 9a9 9 0 013.18-.57 7.25 7.25 0 014.37 1.31 8.29 8.29 0 012.87 3.76h-3.7a5.18 5.18 0 00-1.61-1.34 4.77 4.77 0 00-2.05-.44 4.57 4.57 0 00-3.45 1.52 5.25 5.25 0 00-1.39 3.69 5.21 5.21 0 001.41 3.7 4.63 4.63 0 003.51 1.52 4.34 4.34 0 002.58-.83 4.54 4.54 0 001.72-2.16h-6.15v-2.74z"/><path class="cls-2" d="M27.92 17.61h7.92v2.65h-7.92zm24.36-4h-3.75a4.9 4.9 0 00-1.63-1.42 4.63 4.63 0 00-5.46 1.05A5.28 5.28 0 0040.05 17a5.25 5.25 0 001.39 3.7 4.56 4.56 0 003.44 1.52 4.2 4.2 0 002-.46 4.14 4.14 0 001.53-1.29h3.73a10.14 10.14 0 01-1.3 2.19 7.71 7.71 0 01-1.63 1.56 7.34 7.34 0 01-4.36 1.27A7.45 7.45 0 0139.19 23a7.82 7.82 0 01-1.28-1.78 7.94 7.94 0 01-.77-2.09 10 10 0 01-.25-2.28 8.46 8.46 0 01.62-3.24 8.71 8.71 0 011.83-2.79A8.4 8.4 0 0141.85 9a8 8 0 013-.59 8.56 8.56 0 012.38.32 6.52 6.52 0 012 1 7.12 7.12 0 011.67 1.59 11.56 11.56 0 011.37 2.3m3.7 1.74l.02-6.6h9.87v2.87h-6.82v3.73h5.41v2.83h-5.41v4.05h6.82v2.88h-9.87l-.02-6.93m12.18-1.84V8.76h6.09a6.21 6.21 0 014.26 1.36 4.65 4.65 0 011.5 3.75 4.32 4.32 0 01-.23 1.51 5.21 5.21 0 01-.77 1.33 4.09 4.09 0 01-1.44 1.13 6.83 6.83 0 01-1.87.67l3.22 6.61h-3.28l-3.2-6.5-1.19.08v6.42h-3.07v-6.31m3.09-2.46h.66a16.23 16.23 0 002.42-.19 3.94 3.94 0 001.7-.53 2.87 2.87 0 00.77-.72A1.69 1.69 0 0077 14a2.22 2.22 0 00-.79-1.9 2.42 2.42 0 00-.91-.35 14.56 14.56 0 00-1.45-.2c-.55 0-1-.08-1.46-.08h-1.15zm18.6-7.59v2.87h-2.97v13.49h-3.06V11.63h-2.96V8.76h8.99z"/><path d="M110.81 19.1c0 10-7.38 18-16.48 18h-77c-9.1 0-16.48-8.07-16.48-18s7.38-18 16.48-18h77c9.1-.02 16.48 8.05 16.48 18z" fill="none" stroke="#a72126" stroke-width="1.62"/><path class="cls-2" d="M92 14s5-6.68 7.61-4.8c0 0 2.25 3.63-3.59 9.14 0 0-3 4.06 1.46 2 0 0 4-2.9 1.46.87 0 0-4.64 5.51-7.16 2.32 0 0-2.78-2.47 3.45-8.7 0 0 3.71-3.34-.53-1.6 0 0-4.64 2.9-2.66.73"/><path class="cls-1" d="M103.4 5.68a3 3 0 01-4.49.6 3.74 3.74 0 01-.35-4.94 3 3 0 014.49-.59 3.73 3.73 0 01.35 4.93"/><path class="cls-4" d="M100.69 2.58a.63.63 0 01-.94.08.77.77 0 01-.1-1 .62.62 0 01.93-.08.77.77 0 01.11 1"/><path class="cls-1" d="M30.98 31.03h66.83V42.2H30.98z"/><path class="cls-4" d="M37.17 37.16a2.07 2.07 0 01.2 1.12 2.33 2.33 0 01-.6 1.38 1.84 1.84 0 01-1.46.6 1.87 1.87 0 01-1.6-.84 2.79 2.79 0 01-.56-1.73h1a1.53 1.53 0 00.35 1 1 1 0 00.83.4 1 1 0 00.7-.22 1 1 0 00.31-.56.74.74 0 00-.08-.53 1.16 1.16 0 00-.35-.38 2.22 2.22 0 00-.72-.29 3.08 3.08 0 01-.77-.27 1.89 1.89 0 01-1.07-1.91 2.44 2.44 0 01.51-1.27 1.66 1.66 0 011.4-.66 1.62 1.62 0 011.54.84 3 3 0 01.42 1.51h-1a1.58 1.58 0 00-.23-.83.84.84 0 00-.73-.33.78.78 0 00-.68.25.85.85 0 00-.2.52.61.61 0 00.18.51 1.5 1.5 0 00.44.32 3.31 3.31 0 00.68.24 2.72 2.72 0 01.85.37 1.84 1.84 0 01.62.74m3.43.43v2.44h-1.01v-2.39l-1.86-4.36h1.1l1.26 2.9 1.24-2.9h1.12l-1.85 4.31zm6.19-.41a2.16 2.16 0 01.2 1.12 2.33 2.33 0 01-.6 1.38 2 2 0 01-3.07-.24 2.85 2.85 0 01-.56-1.73h1a1.47 1.47 0 00.34 1 1.05 1.05 0 00.83.4 1 1 0 00.7-.22 1.05 1.05 0 00.32-.56.8.8 0 00-.08-.53 1.16 1.16 0 00-.35-.38 2.19 2.19 0 00-.73-.29 3 3 0 01-.76-.27 1.93 1.93 0 01-.82-.75 2 2 0 01-.25-1.16 2.51 2.51 0 01.5-1.27 1.68 1.68 0 011.42-.66 1.59 1.59 0 011.53.84 2.87 2.87 0 01.42 1.51h-1a1.59 1.59 0 00-.24-.83.83.83 0 00-.73-.33.8.8 0 00-.68.25.92.92 0 00-.16.56.62.62 0 00.19.51 1.34 1.34 0 00.43.32 3.42 3.42 0 00.69.24 2.57 2.57 0 01.84.37 1.86 1.86 0 01.63.74m3.05-2.71v5.54h-1.01l.01-5.56h-1.62V33.3h4.23v1.17h-1.61zm2.3 5.51V33.3h3.72l.01 1.18h-2.74v1.5l2.6.01v1.17h-2.6v1.66h2.8V40l-3.79-.02zm8.52.03l.01-3.73h-.05L59.69 40h-1.1l-.91-3.65-.04.02v3.61l-.98.02v-6.73h1.13l1.35 5.03 1.31-5.03h1.2v6.74h-1zm8.16-2.85a2.07 2.07 0 01.19 1.12 2.45 2.45 0 01-.6 1.38 2 2 0 01-3.07-.24 2.85 2.85 0 01-.56-1.73h1a1.48 1.48 0 00.35 1 1 1 0 00.83.4 1 1 0 00.7-.22 1 1 0 00.31-.56.74.74 0 00-.08-.53 1 1 0 00-.34-.38 2.28 2.28 0 00-.73-.29 3.23 3.23 0 01-.77-.27 1.9 1.9 0 01-.81-.75A2 2 0 0165 34.9a2.34 2.34 0 01.5-1.27 1.67 1.67 0 011.41-.63 1.6 1.6 0 011.53.84 3 3 0 01.42 1.51h-1a1.5 1.5 0 00-.23-.83.84.84 0 00-.73-.33.8.8 0 00-.68.25.92.92 0 00-.22.56.64.64 0 00.18.51 1.65 1.65 0 00.44.32 3.54 3.54 0 00.68.24 2.62 2.62 0 01.85.37 1.84 1.84 0 01.62.74m.93 2.8V33.3h3.73l.01 1.18H70.7v1.5l2.6.01v1.17h-2.6v1.66h2.79V40l-3.79-.02zm7.65.02l-1.44-2.55h-.68V40h-1v-6.71h2.17a1.69 1.69 0 011.29.58 2.08 2.08 0 01.53 1.44 2.46 2.46 0 01-.33 1.25 1.71 1.71 0 01-.8.76l1.5 2.68zm-.46-4a.91.91 0 00.26-.7.74.74 0 00-.26-.63 1 1 0 00-.64-.2h-1v1.78h1a.93.93 0 00.64-.25m4.82 4H80.6l-2-6.74h1.02l1.53 5.12 1.53-5.12h1.02L81.71 40zm2.53-.02v-6.72h1V40l-1-.02zm6.38-2.32a4.08 4.08 0 01-.71 1.68 1.85 1.85 0 01-1.61.83 2 2 0 01-1.77-1 4.57 4.57 0 01-.65-2.56 4.44 4.44 0 01.65-2.53 2 2 0 011.77-1 1.83 1.83 0 011.64.85 4.12 4.12 0 01.67 1.58h-1.07a2.19 2.19 0 00-.37-.83 1 1 0 00-.84-.41 1.16 1.16 0 00-1 .64 3.33 3.33 0 00-.38 1.69 3.44 3.44 0 00.38 1.71 1.14 1.14 0 001 .66 1 1 0 00.84-.44 2.92 2.92 0 00.4-.89zm.7 2.32V33.3h3.73l.01 1.18h-2.74v1.5l2.59.01v1.17h-2.59v1.66h2.79V40l-3.79-.02z"/><path class="cls-2" d="M3.43 74.78v-7.32h1.48v7.32zm2.51-2.38l1.44-.14a1.78 1.78 0 00.53 1.07 1.61 1.61 0 001.09.34 1.6 1.6 0 001.08-.31.89.89 0 00.36-.7.7.7 0 00-.15-.45 1.22 1.22 0 00-.54-.31c-.17-.06-.56-.17-1.18-.32a4 4 0 01-1.67-.73 1.94 1.94 0 01-.36-2.52 2.06 2.06 0 01.92-.74 3.67 3.67 0 011.44-.26 3.13 3.13 0 012.08.61 2.13 2.13 0 01.73 1.61l-1.48.07a1.21 1.21 0 00-.41-.81 1.45 1.45 0 00-.93-.25 1.73 1.73 0 00-1 .26.56.56 0 000 .9 3.85 3.85 0 001.36.49 7.37 7.37 0 011.6.53 2.14 2.14 0 01.81.74 2.25 2.25 0 01.29 1.17 2.2 2.2 0 01-.35 1.18 2.06 2.06 0 01-1 .82 4.13 4.13 0 01-1.6.27 3.18 3.18 0 01-2.14-.65 2.79 2.79 0 01-.92-1.87zm6.9-1.23a4.51 4.51 0 01.34-1.88 3.27 3.27 0 01.68-1 3 3 0 011-.66 4 4 0 011.58-.29 3.44 3.44 0 012.59 1 4.48 4.48 0 010 5.57 3.39 3.39 0 01-2.57 1 3.43 3.43 0 01-2.6-1 3.74 3.74 0 01-1.02-2.74zm1.53 0a2.73 2.73 0 00.57 1.83 2 2 0 002.91 0 2.79 2.79 0 00.57-1.91 2.74 2.74 0 00-.55-1.88 1.89 1.89 0 00-1.47-.62 1.86 1.86 0 00-1.47.63 2.7 2.7 0 00-.56 1.9zm5.97 3.74l1.82-7.58h1.05l-1.83 7.58zm3.56-.13v-7.32h1.48v7.32zm2.89 0v-7.32h5.43v1.24h-3.95v1.62H32v1.24h-3.73v2h4.09v1.23zm11.51-2.69l1.44.46a3.23 3.23 0 01-1.1 1.78 3.44 3.44 0 01-4.34-.42 3.78 3.78 0 01-.94-2.72 4 4 0 01.94-2.84 3.23 3.23 0 012.48-1 3.06 3.06 0 012.19.8 2.92 2.92 0 01.75 1.35l-1.47.35a1.49 1.49 0 00-.54-.9 1.54 1.54 0 00-1-.33 1.67 1.67 0 00-1.32.58 2.86 2.86 0 00-.51 1.9 3.12 3.12 0 00.5 2 1.63 1.63 0 001.3.59 1.47 1.47 0 001-.38 2.1 2.1 0 00.62-1.22zm9.98 1.39v1.3h-4.92a3.3 3.3 0 01.48-1.4 9.4 9.4 0 011.58-1.75 9.75 9.75 0 001.16-1.2 1.5 1.5 0 00.29-.86.88.88 0 00-.95-1 .9.9 0 00-.69.27 1.3 1.3 0 00-.3.88l-1.4-.14a2.3 2.3 0 01.78-1.67 2.68 2.68 0 011.65-.5 2.37 2.37 0 011.7.58 1.91 1.91 0 01.62 1.46 2.7 2.7 0 01-.17.94 3.87 3.87 0 01-.57.94 9.41 9.41 0 01-.92.93q-.66.61-.84.81a1.9 1.9 0 00-.28.39zm.95-4.62v-1.3H54v1a7.46 7.46 0 00-1.21 1.68 9.57 9.57 0 00-.94 2.32 8.58 8.58 0 00-.32 2.2h-1.31a9.39 9.39 0 01.62-3.09 10.41 10.41 0 011.59-2.83zm8.07-1.43a2 2 0 011.66.76 4.81 4.81 0 01.72 3 4.86 4.86 0 01-.72 3 2 2 0 01-1.66.75 2.11 2.11 0 01-1.73-.82 4.92 4.92 0 01-.65-2.93 4.85 4.85 0 01.72-3 2 2 0 011.66-.76zm0 1.16a.73.73 0 00-.46.17 1.12 1.12 0 00-.31.58 8.45 8.45 0 00-.14 1.83 7.74 7.74 0 00.13 1.77 1.26 1.26 0 00.33.65.73.73 0 00.45.16.68.68 0 00.45-.17 1 1 0 00.31-.58 7.71 7.71 0 00.15-1.83 8.38 8.38 0 00-.13-1.77 1.25 1.25 0 00-.33-.64.68.68 0 00-.45-.17zm6.91 6.19h-1.4v-5.29A4.9 4.9 0 0161 70.56v-1.28a3.92 3.92 0 001.2-.68 2.53 2.53 0 00.88-1.17h1.14zm2.1-5.92v-1.3h4.8v1a7.46 7.46 0 00-1.21 1.68 10 10 0 00-.9 2.34 8.53 8.53 0 00-.31 2.2h-1.4a9.41 9.41 0 01.63-3.09 10.13 10.13 0 011.58-2.83zm6.26 2.02v-1.4H74v1.4zm0 3.9v-1.4H74v1.4zm7.58-1.3v1.3h-4.92a3.3 3.3 0 01.48-1.4 9.4 9.4 0 011.58-1.75 9.75 9.75 0 001.16-1.2 1.5 1.5 0 00.29-.86 1 1 0 00-1.65-.71 1.41 1.41 0 00-.3.88l-1.4-.14a2.35 2.35 0 01.79-1.67 2.68 2.68 0 011.65-.5 2.37 2.37 0 011.7.58 1.94 1.94 0 01.62 1.46 2.5 2.5 0 01-.18.94 3.52 3.52 0 01-.56.94 9.41 9.41 0 01-.92.93q-.66.61-.84.81a2.46 2.46 0 00-.29.39zm3.32-6.05a2 2 0 011.67.76 4.88 4.88 0 01.71 3 4.86 4.86 0 01-.72 3 2 2 0 01-1.66.75 2.09 2.09 0 01-1.72-.82 4.84 4.84 0 01-.66-2.93 4.85 4.85 0 01.72-3 2 2 0 011.66-.76zm0 1.16a.68.68 0 00-.45.17 1.05 1.05 0 00-.31.58 7.71 7.71 0 00-.15 1.83 8.38 8.38 0 00.13 1.77 1.34 1.34 0 00.33.65.71.71 0 00.91 0 1.09 1.09 0 00.31-.58 7.85 7.85 0 00.14-1.83 7.74 7.74 0 00-.13-1.77 1.18 1.18 0 00-.32-.64.73.73 0 00-.46-.18zm6.92 6.19H89v-5.29a4.86 4.86 0 01-1.81 1.07v-1.28a4 4 0 001.19-.68 2.56 2.56 0 00.89-1.17h1.14zm2.11-1.88l1.4-.14a1.21 1.21 0 00.36.75 1 1 0 00.68.28.93.93 0 00.74-.36 1.6 1.6 0 00.32-1.08 1.42 1.42 0 00-.31-1 1 1 0 00-.79-.35 1.43 1.43 0 00-1.09.54l-1.14-.17.72-3.81h3.72v1.31h-2.65l-.22 1.25a2.07 2.07 0 011-.24 2.11 2.11 0 011.58.68 2.48 2.48 0 01.65 1.77 2.63 2.63 0 01-.52 1.61 2.33 2.33 0 01-2 1 2.48 2.48 0 01-1.65-.54 2.3 2.3 0 01-.8-1.5zM3.43 87.07v-7.33h1.48v7.33zm2.51-2.39l1.44-.14a1.75 1.75 0 00.53 1.07A1.61 1.61 0 009 86a1.66 1.66 0 001.08-.3.92.92 0 00.36-.71.65.65 0 00-.15-.44 1.13 1.13 0 00-.54-.32c-.17-.06-.56-.17-1.18-.32a4 4 0 01-1.67-.73 1.89 1.89 0 01-.67-1.47 1.92 1.92 0 01.31-1 2.06 2.06 0 01.92-.74 3.67 3.67 0 011.44-.25 3.13 3.13 0 012.08.6 2.13 2.13 0 01.73 1.61l-1.48.07a1.21 1.21 0 00-.41-.81 1.45 1.45 0 00-.93-.25 1.73 1.73 0 00-1 .26.56.56 0 000 .9 3.85 3.85 0 001.36.49 7.37 7.37 0 011.6.53 2.09 2.09 0 01.81.75 2.19 2.19 0 01.29 1.16 2.17 2.17 0 01-.35 1.18 2.06 2.06 0 01-1 .82 4.13 4.13 0 01-1.6.17 3.18 3.18 0 01-2.14-.65 2.77 2.77 0 01-.92-1.87zm6.9-1.23a4.55 4.55 0 01.34-1.88 3.23 3.23 0 01.68-1 2.72 2.72 0 011-.66 3.88 3.88 0 011.58-.29 3.44 3.44 0 012.59 1 4.48 4.48 0 010 5.57 3.39 3.39 0 01-2.57 1 3.43 3.43 0 01-2.6-1 3.74 3.74 0 01-1.02-2.74zm1.53 0a2.77 2.77 0 00.57 1.89 1.91 1.91 0 001.46.64 1.87 1.87 0 001.45-.64 2.78 2.78 0 00.57-1.91 2.74 2.74 0 00-.55-1.88 1.89 1.89 0 00-1.47-.62 1.86 1.86 0 00-1.47.63 2.74 2.74 0 00-.56 1.84zm5.97 3.74l1.82-7.57h1.05l-1.83 7.57zm3.56-.12v-7.33h1.48v7.33zm2.89 0v-7.33h5.43V81h-3.95v1.6H32v1.24h-3.73v2h4.09v1.24zm11.51-2.7l1.44.46a3.23 3.23 0 01-1.1 1.78 3.44 3.44 0 01-4.34-.42 3.78 3.78 0 01-.94-2.72 4 4 0 01.94-2.84 3.22 3.22 0 012.48-1 3.05 3.05 0 012.19.79 2.92 2.92 0 01.75 1.35l-1.47.35a1.49 1.49 0 00-.54-.9 1.54 1.54 0 00-1-.33 1.7 1.7 0 00-1.32.58 2.88 2.88 0 00-.51 1.9 3.12 3.12 0 00.5 2 1.63 1.63 0 001.3.59 1.47 1.47 0 001-.38 2.1 2.1 0 00.62-1.21zm9.98 1.39v1.31h-4.92a3.25 3.25 0 01.48-1.4 9.08 9.08 0 011.58-1.76 9.75 9.75 0 001.16-1.2 1.5 1.5 0 00.29-.86 1 1 0 00-.25-.72.94.94 0 00-.7-.26.9.9 0 00-.69.27 1.3 1.3 0 00-.3.88l-1.4-.14a2.26 2.26 0 01.78-1.66 2.62 2.62 0 011.69-.51 2.37 2.37 0 011.7.59 1.87 1.87 0 01.62 1.45 2.7 2.7 0 01-.17.94 3.87 3.87 0 01-.57.94 8.41 8.41 0 01-.92.93q-.66.61-.84.81a2.65 2.65 0 00-.28.39zm.95-4.62v-1.3H54v1a7.46 7.46 0 00-1.21 1.68 9.48 9.48 0 00-.94 2.33 8.52 8.52 0 00-.32 2.2h-1.31a9.4 9.4 0 01.62-3.1 10.56 10.56 0 011.59-2.83zm8.07-1.43a2 2 0 011.66.76 4.81 4.81 0 01.72 3 4.84 4.84 0 01-.72 3 2 2 0 01-1.66.75 2.11 2.11 0 01-1.73-.82 4.92 4.92 0 01-.65-2.93 4.85 4.85 0 01.72-3 2 2 0 011.66-.76zm0 1.16a.73.73 0 00-.46.17 1.16 1.16 0 00-.31.58 8.45 8.45 0 00-.14 1.83 7.9 7.9 0 00.13 1.78 1.22 1.22 0 00.33.64.73.73 0 00.45.16.68.68 0 00.45-.17 1 1 0 00.31-.58 7.71 7.71 0 00.15-1.83 8.38 8.38 0 00-.13-1.77 1.3 1.3 0 00-.33-.64.68.68 0 00-.45-.17zm6.91 6.2h-1.4v-5.3A4.9 4.9 0 0161 82.84v-1.28a3.92 3.92 0 001.2-.68 2.53 2.53 0 00.88-1.17h1.14zm3.3-3.96a1.64 1.64 0 01-.79-.63 1.7 1.7 0 01-.25-.88 1.75 1.75 0 01.53-1.35 2.31 2.31 0 011.63-.54 2.26 2.26 0 011.62.54 1.73 1.73 0 01.58 1.35 1.67 1.67 0 01-.26.91 1.73 1.73 0 01-.75.6 2 2 0 01.93.72 1.88 1.88 0 01.32 1.08 2.21 2.21 0 01-.65 1.65 2.37 2.37 0 01-1.72.64 2.63 2.63 0 01-1.67-.53 2 2 0 01-.78-1.7 2.17 2.17 0 01.29-1.09 1.94 1.94 0 01.97-.77zm.16 1.73a1.27 1.27 0 00.3.9 1 1 0 00.74.33.93.93 0 00.72-.32 1.26 1.26 0 00.29-.9 1.16 1.16 0 00-.29-.82 1 1 0 00-.74-.32.88.88 0 00-.77.36 1.33 1.33 0 00-.25.77zm.13-3.14a.9.9 0 001.51.65.89.89 0 00.24-.66.85.85 0 00-.24-.63.81.81 0 00-.62-.23.92.92 0 00-.65.23.88.88 0 00-.24.64zm4.77 1.46v-1.4H74v1.4zm0 3.91v-1.41H74v1.41zm7.58-1.31v1.31h-4.92a3.25 3.25 0 01.48-1.4 9.08 9.08 0 011.58-1.76 9.75 9.75 0 001.16-1.2 1.5 1.5 0 00.29-.86 1 1 0 00-.25-.72 1.06 1.06 0 00-1.4 0 1.41 1.41 0 00-.3.88l-1.4-.14a2.3 2.3 0 01.79-1.66 2.62 2.62 0 011.65-.51 2.37 2.37 0 011.7.59 1.9 1.9 0 01.62 1.45 2.5 2.5 0 01-.18.94 3.52 3.52 0 01-.56.94 8.41 8.41 0 01-.92.93q-.66.61-.84.81a3.89 3.89 0 00-.29.39zm3.32-6.05a2 2 0 011.67.76 4.88 4.88 0 01.71 3 4.84 4.84 0 01-.72 3 2 2 0 01-1.66.75 2.09 2.09 0 01-1.72-.82 4.84 4.84 0 01-.66-2.93 4.85 4.85 0 01.72-3 2 2 0 011.66-.76zm0 1.16A.68.68 0 0083 81a1.09 1.09 0 00-.31.58 7.71 7.71 0 00-.15 1.83 8.56 8.56 0 00.13 1.78 1.3 1.3 0 00.33.64.71.71 0 00.91 0 1.05 1.05 0 00.31-.58 7.85 7.85 0 00.14-1.83 7.74 7.74 0 00-.13-1.77 1.22 1.22 0 00-.32-.64.73.73 0 00-.44-.14zm6.92 6.2H89v-5.3a4.86 4.86 0 01-1.81 1.07v-1.28a4 4 0 001.19-.68 2.56 2.56 0 00.89-1.17h1.14zm2.12-1.7l1.36-.15a1 1 0 00.26.62.8.8 0 00.56.2.93.93 0 00.74-.4 3.5 3.5 0 00.39-1.64 1.69 1.69 0 01-1.33.61 2 2 0 01-1.49-.68 2.45 2.45 0 01-.63-1.74 2.5 2.5 0 01.67-1.8 2.39 2.39 0 013.51.18 4.44 4.44 0 01.72 2.84 4.5 4.5 0 01-.75 2.9 2.42 2.42 0 01-1.94.89 2.1 2.1 0 01-1.39-.46 2.24 2.24 0 01-.68-1.37zm3.18-3.07a1.58 1.58 0 00-.31-1 .93.93 0 00-.72-.38.83.83 0 00-.65.31 1.59 1.59 0 00-.26 1 1.64 1.64 0 00.28 1 .89.89 0 00.7.33.84.84 0 00.68-.32 1.35 1.35 0 00.28-.94zM6.88 54.84v-1.23h3.19v2.91a4 4 0 01-1.35.8 5.06 5.06 0 01-1.78.34 4 4 0 01-2-.48 3.11 3.11 0 01-1.29-1.38 4.42 4.42 0 01-.43-1.95 4.24 4.24 0 01.48-2 3.23 3.23 0 011.4-1.36 3.73 3.73 0 011.76-.37 3.44 3.44 0 012.14.54 2.53 2.53 0 011 1.58l-1.46.27a1.57 1.57 0 00-.59-.85 1.73 1.73 0 00-1.06-.31 2 2 0 00-1.58.65 2.61 2.61 0 00-.57 1.83 2.87 2.87 0 00.58 2 1.93 1.93 0 001.52.65 2.56 2.56 0 00.93-.18 3.46 3.46 0 00.81-.44v-.93zm4.51 2.69v-7.32h1.48v7.32zm2.51-2.38l1.44-.15a1.73 1.73 0 00.53 1.06 1.56 1.56 0 001.07.34 1.66 1.66 0 001.08-.3.9.9 0 00.36-.71.67.67 0 00-.15-.44 1.14 1.14 0 00-.53-.31c-.18-.06-.57-.17-1.19-.32a4 4 0 01-1.67-.73 1.89 1.89 0 01-.67-1.47 1.8 1.8 0 01.32-1.05 1.92 1.92 0 01.91-.74 3.67 3.67 0 011.44-.26 3.08 3.08 0 012.08.61 2.13 2.13 0 01.73 1.61l-1.48.07a1.26 1.26 0 00-.41-.82 1.52 1.52 0 00-.93-.24 1.73 1.73 0 00-1 .26.55.55 0 00-.24.46.57.57 0 00.22.44 3.85 3.85 0 001.36.49 7.37 7.37 0 011.6.53 2.14 2.14 0 01.81.74 2.25 2.25 0 01.29 1.17 2.2 2.2 0 01-.35 1.18 2.06 2.06 0 01-1 .82 4.34 4.34 0 01-1.59.26 3.18 3.18 0 01-2.14-.65 2.84 2.84 0 01-.89-1.85zm7.03.43v-1.4h2.76v1.4zM27 57.53v-1.47h-3v-1.23l3.18-4.65h1.18v4.65h.9v1.23h-.9v1.47zm0-2.7v-2.51l-1.69 2.51zm6.49 2.7h-1.41v-5.29a4.86 4.86 0 01-1.81 1.07V52a4.24 4.24 0 001.19-.68 2.66 2.66 0 00.89-1.17h1.14zm6.84-1.3v1.3h-4.92a3.3 3.3 0 01.48-1.4 9.26 9.26 0 011.57-1.75 9.34 9.34 0 001.17-1.2 1.58 1.58 0 00.29-.86 1 1 0 00-.25-.73 1 1 0 00-.7-.25.93.93 0 00-.7.27 1.38 1.38 0 00-.3.88l-1.4-.14a2.29 2.29 0 01.79-1.67 2.62 2.62 0 011.64-.5 2.38 2.38 0 011.71.58 1.94 1.94 0 01.62 1.46 2.5 2.5 0 01-.18.94 3.81 3.81 0 01-.56.94 10.73 10.73 0 01-.92.93c-.44.41-.73.68-.84.81a2 2 0 00-.29.39zm.9-.64l1.36-.17a1.27 1.27 0 00.35.8 1 1 0 00.69.27 1 1 0 00.73-.33 1.26 1.26 0 00.3-.89 1.16 1.16 0 00-.29-.83.89.89 0 00-.69-.31 2.45 2.45 0 00-.65.1l.16-1.14a1.26 1.26 0 00.87-.25.89.89 0 00.3-.7.84.84 0 00-.22-.59.8.8 0 00-.59-.22.86.86 0 00-.61.25 1.15 1.15 0 00-.31.73l-1.3-.22a2.9 2.9 0 01.41-1.09 1.74 1.74 0 01.76-.62 2.42 2.42 0 011.09-.23 2.18 2.18 0 011.66.66 1.72 1.72 0 01.51 1.22 1.74 1.74 0 01-1 1.54 1.72 1.72 0 011 .6 1.75 1.75 0 01.37 1.14 2.19 2.19 0 01-.7 1.64 2.43 2.43 0 01-1.75.68 2.4 2.4 0 01-1.68-.54 2.23 2.23 0 01-.77-1.5zm5.88-.01v-1.4h2.76v1.4zm8.26-.74l1.44.45a3.26 3.26 0 01-1.1 1.79 3.17 3.17 0 01-1.94.58 3.12 3.12 0 01-2.4-1 3.78 3.78 0 01-.94-2.72 4 4 0 01.94-2.84 3.23 3.23 0 012.49-1 3.05 3.05 0 012.18.8 2.92 2.92 0 01.75 1.35l-1.47.35a1.49 1.49 0 00-.54-.9 1.54 1.54 0 00-1-.33 1.67 1.67 0 00-1.32.58 2.86 2.86 0 00-.51 1.9 3.07 3.07 0 00.5 2 1.6 1.6 0 001.3.59 1.51 1.51 0 001-.37 2.16 2.16 0 00.62-1.23zm7.39 0l1.44.45a3.26 3.26 0 01-1.1 1.79 3.17 3.17 0 01-1.94.58 3.12 3.12 0 01-2.4-1 3.78 3.78 0 01-.94-2.72 4 4 0 01.94-2.84 3.23 3.23 0 012.49-1 3.05 3.05 0 012.18.8 2.92 2.92 0 01.75 1.35l-1.46.35a1.53 1.53 0 00-1.55-1.23 1.67 1.67 0 00-1.32.58 2.86 2.86 0 00-.51 1.9 3.07 3.07 0 00.5 2 1.62 1.62 0 001.3.59 1.51 1.51 0 001-.37 2.16 2.16 0 00.62-1.23zm2.33.31l1.44-.15a1.78 1.78 0 00.53 1.06 1.58 1.58 0 001.07.34 1.66 1.66 0 001.08-.3.9.9 0 00.36-.71.67.67 0 00-.15-.44 1.14 1.14 0 00-.53-.31c-.18-.06-.57-.17-1.19-.32a4 4 0 01-1.7-.72 1.89 1.89 0 01-.67-1.47 1.8 1.8 0 01.32-1.05 1.92 1.92 0 01.91-.74 3.67 3.67 0 011.44-.26 3.08 3.08 0 012.08.61 2.13 2.13 0 01.73 1.61l-1.48.07a1.26 1.26 0 00-.41-.82 1.5 1.5 0 00-.93-.24 1.73 1.73 0 00-1 .26.55.55 0 00-.24.46.57.57 0 00.22.44 3.85 3.85 0 001.36.49 7.37 7.37 0 011.6.53 2.14 2.14 0 01.81.74 2.25 2.25 0 01.29 1.17 2.2 2.2 0 01-.35 1.18 2.06 2.06 0 01-1 .82 4.34 4.34 0 01-1.59.26A3.18 3.18 0 0166 57a2.84 2.84 0 01-.91-1.85zm7.03.43v-1.4h2.76v1.4zm3.58 1.95v-7.32h2.38a8.18 8.18 0 011.76.11 1.93 1.93 0 011 .71 2.31 2.31 0 01.42 1.43 2.46 2.46 0 01-.24 1.14 2.08 2.08 0 01-.62.72 2.3 2.3 0 01-.77.35 9.49 9.49 0 01-1.53.1h-1v2.76zm1.48-6.08v2.08H78a3.7 3.7 0 001.17-.12 1 1 0 00.46-.36.92.92 0 00.17-.57 1 1 0 00-.23-.66 1 1 0 00-.6-.32 6.26 6.26 0 00-1.06 0zm5.3 6.08v-7.32H84v7.32zm2.85 0v-7.32h1.48v7.32z"/></g></g></svg>