<svg xmlns="http://www.w3.org/2000/svg" viewBox="0 0 86.45 110"><defs><style>.cls-4{fill:#00513c}.cls-10,.cls-4,.cls-5,.cls-6,.cls-7,.cls-8,.cls-9{fill-rule:evenodd}.cls-5{fill:#02553e}.cls-6{fill:#c6d5d0}.cls-7{fill:#82a599}.cls-8{fill:#01563e}.cls-9{fill:#3f7764}.cls-10{fill:#fff}</style></defs><g id="레이어_2" data-name="레이어 2"><g id="레이어_1-2" data-name="레이어 1"><path d="M19.42 109.84H18v-6.71l-2.7 4.56h-.8l-2.67-4.56v6.71h-1.29v-7.78h1.88l2.58 4.33 2.49-4.33h1.92zm4.99.16a8.76 8.76 0 01-1.92-.18 10.8 10.8 0 01-1.49-.43v-1.29h.1a5.55 5.55 0 001.55.74 5.48 5.48 0 001.66.27 3.31 3.31 0 001.72-.36 1.09 1.09 0 00.59-1 1 1 0 00-.31-.75 2 2 0 00-1-.44c-.32-.07-.61-.13-.88-.17l-1-.18a5.51 5.51 0 01-1-.27 2.71 2.71 0 01-.75-.42 1.74 1.74 0 01-.68-1.41 1.86 1.86 0 011-1.58 4.5 4.5 0 012.51-.65 9.54 9.54 0 011.64.14 7.58 7.58 0 011.44.37v1.24h-.11a4.93 4.93 0 00-1.26-.6 5.18 5.18 0 00-1.62-.25 3.11 3.11 0 00-1.56.34 1 1 0 00-.59.88 1 1 0 00.35.79 2.2 2.2 0 001 .43l1.07.2c.42.08.77.14 1 .21a3.15 3.15 0 011.57.74 1.66 1.66 0 01.49 1.22 1.8 1.8 0 01-.25.9 2.06 2.06 0 01-.69.75 4.05 4.05 0 01-1.13.53 5.79 5.79 0 01-1.45.23zm9.1 0a6.5 6.5 0 01-1.87-.26 4.1 4.1 0 01-1.47-.76 3.27 3.27 0 01-1-1.27 4.58 4.58 0 010-3.44 3.65 3.65 0 011-1.26 4.17 4.17 0 011.47-.8 6.22 6.22 0 011.9-.28 7.32 7.32 0 011 .06c.31 0 .59.09.85.15s.45.12.69.2.46.16.69.25v1.25h-.11l-.47-.3a4.14 4.14 0 00-.7-.35 5.1 5.1 0 00-.86-.27 5 5 0 00-1.08-.1 4 4 0 00-1.25.2 3.25 3.25 0 00-1 .6 2.73 2.73 0 00-.68 1 3.62 3.62 0 00-.32 1.38 3.19 3.19 0 00.26 1.37 2.79 2.79 0 00.7 1 3.06 3.06 0 001 .58 3.93 3.93 0 001.24.2 5.49 5.49 0 001.11-.11 5.64 5.64 0 00.9-.28 5.05 5.05 0 00.66-.33c.19-.12.34-.21.44-.29h.11v1.23l-.65.23c-.2.07-.44.14-.73.21a7.82 7.82 0 01-.84.17 6.77 6.77 0 01-.99.02zM45 107.45a1.82 1.82 0 01-.29 1 2.31 2.31 0 01-.79.73 4 4 0 01-1.25.49 8.06 8.06 0 01-1.72.15H38v-7.78h4.41a3.83 3.83 0 011.06.26 1.82 1.82 0 01.82.59 1.42 1.42 0 01.25.85 1.39 1.39 0 01-.38 1 2.56 2.56 0 01-1.07.68 2.74 2.74 0 011.43.68 1.69 1.69 0 01.48 1.35zM43.12 104a1 1 0 00-.12-.49.86.86 0 00-.41-.33 2.43 2.43 0 00-.74-.17h-2.46v2.28H41a7 7 0 00.95 0 2 2 0 00.63-.21.94.94 0 00.45-.4 1.21 1.21 0 00.09-.68zm.49 3.53a1.42 1.42 0 00-.17-.72 1.36 1.36 0 00-.67-.49 2.71 2.71 0 00-.72-.16 10.19 10.19 0 00-1.09 0h-1.57V109h1.12a13.19 13.19 0 001.43-.06 2.6 2.6 0 00.92-.27 1.43 1.43 0 00.57-.46 1.13 1.13 0 00.18-.72zm6.3-.62H46v-1h3.92zm7.25 2.93h-5V109H54v-5.21h-1.89v-.71a4.08 4.08 0 001.57-.23 1 1 0 00.57-.86h1.08v7h1.83zm7.78 0h-5V109h1.88v-5.21h-1.93v-.71a4.08 4.08 0 001.57-.23A1 1 0 0062 102h1.1v7h1.84zm4.71-7.04a3.81 3.81 0 00-.75.07 6.11 6.11 0 00-.74.17c-.22.07-.41.15-.58.22l-.44.22h-.08v-1.1a6.2 6.2 0 011.22-.34 7.82 7.82 0 011.48-.15A6.31 6.31 0 0171 102a3.44 3.44 0 011 .33 1.81 1.81 0 01.69.61 1.46 1.46 0 01-.33 2 2.72 2.72 0 01-1.35.62v.07a4.09 4.09 0 01.7.16 2.47 2.47 0 01.69.34 1.65 1.65 0 01.73 1.44 2 2 0 01-.24 1 2.62 2.62 0 01-.68.78 3.47 3.47 0 01-1.09.54 5.45 5.45 0 01-1.46.18 8.82 8.82 0 01-1.54-.14 8.46 8.46 0 01-1.29-.34v-1.1h.1a6.33 6.33 0 001.17.46 5.41 5.41 0 001.48.22 3.54 3.54 0 00.85-.11 1.67 1.67 0 00.71-.33 1.58 1.58 0 00.43-.51 1.43 1.43 0 00.14-.7 1.31 1.31 0 00-.16-.69 1.19 1.19 0 00-.46-.43 2.15 2.15 0 00-.69-.22 5.71 5.71 0 00-.86-.06h-.59v-.86h.45a3.1 3.1 0 001.53-.34 1.05 1.05 0 00.59-1 .84.84 0 00-.15-.5 1.14 1.14 0 00-.39-.34 1.86 1.86 0 00-.59-.19 4.83 4.83 0 00-.74-.09z" fill="#231815"/><text transform="matrix(1 0 0 1.34 0 97.8)" fill="#4a6d37" font-family="Arial-BoldMT,Arial" font-weight="700" font-size="12.25">ACCREDITED</text><text transform="matrix(1 0 0 1.34 80.98 90.14)" font-size="7.35" fill="#4a6d37" font-family="Arial-BoldMT,Arial" font-weight="700">®</text><path class="cls-4" d="M0 .19C27.17-.2 55.1.14 82.55 0c-.11 26.21.24 52.86-.17 78.78-.12-26.14.24-52.74-.17-78.61H0z"/><path class="cls-4" d="M82.21 1V.2c.4 25.86.05 52.46.17 78.6h-.17V1zm-.88.54c.41 24.37.06 51.13.17 76.42-.41-24.36-.06-51.12-.17-76.42"/><path class="cls-5" d="M42.16 13.49a37.63 37.63 0 010 8.08z"/><path class="cls-6" d="M42 23.26a31 31 0 017.21 0H42zm8.76 0a19 19 0 015.63 0z"/><path class="cls-7" d="M40.4 23.26h.18v5.38h-.18v-5.38z"/><path class="cls-8" d="M51.47 23.76c1.05-.39 2.87-.06 4.21-.17-1 .39-2.86.06-4.21.17"/><path class="cls-5" d="M58.49 23.93c1.06-.39 2.87-.06 4.22-.17-1.06.39-2.87.06-4.22.17m-15.98.34c.41 1.06.06 2.86.17 4.2-.41-1.06 0-2.86-.17-4.2"/><path class="cls-9" d="M23.89 28.64c-.07.33-2.13.27-1.41-.17.14.38 1 .07 1.41.17"/><path class="cls-8" d="M47.43 30.16h-.18c-3.4-.4-7.55-.07-11.24-.17 3.34-.39 7.44-.06 11.07-.17.31-.24.4-.16.35.34"/><path class="cls-9" d="M48.13 30.16c.41 1.34.06 3.42.18 5.05h-.18zm-21.25 3.03c.7-.39 2.16-.06 3.16-.17-.71.39-2.17.06-3.16.17m27.4 0c-.54-.11-1.51.21-1.76-.17.47.06 2.14-.15 1.76.17"/><path class="cls-7" d="M48.13 35.21h.18v5.55h-.18v-5.55z"/><path class="cls-5" d="M28.28 37.23h-.53c.06-.35.48-.33.53-.68.2 0 .19.27.17.51s0 .2-.17.17m-1.4 1.34h-.53c0-.34.48-.33.53-.67.2 0 .19.27.18.5s0 .2-.18.17"/><path class="cls-6" d="M48.13 40.76h.18v5.39c-.41-1.47-.07-3.65-.18-5.39m9.13 4.88H59a2 2 0 01-1.76 0"/><path class="cls-8" d="M37.07 48.17v.67a.93.93 0 01-.53.17c-.36-.54.69-.52.17-.67 0-.16.22-.13.36-.17M6.33 50.35h18.44c-5.68.52-12.59-.16-18.27.34-.17 0-.13-.2-.17-.34m30.91 0h10a59.75 59.75 0 01-10 0m24.94.52c-.55-.2-.4 0-1 0 .11-.16.21-.31 0-.35 0-.23 1.15-.1 1 .35m-6.49-.18h1.57c-.09.59-1.14.25-1.75.34 0-.14.18-.16.18-.34"/><path class="cls-7" d="M40.4 55.57c.12-1.24-.23-2.91.18-3.87v4.21h-.18z"/><path class="cls-9" d="M42 55.91V51.7c.41 1.07.06 2.87.18 4.21z"/><path class="cls-8" d="M42.68 52.71c.37-.17.1 1.71.18 2.36-.36.17-.09-1.7-.18-2.36m.18 2.86c.65-.39 2-.06 3-.16H49c-1.7.39-4.16.06-6.15.16m8.79 0c1.06-.42 6.84 0 2.29 0h-2.29m-8.64.34a18.84 18.84 0 015.61 0zm8.47 0a10.66 10.66 0 014.21 0zm7.02 0a10.71 10.71 0 014.22 0z"/><path class="cls-6" d="M42 55.91h7.21a31 31 0 01-7.21 0m8.76 0h5.45a17.79 17.79 0 01-5.45 0"/><path class="cls-8" d="M42.34 58.1c.39 1.35.06 4.87.17 7.06-.4-1.35-.06-4.87-.17-7.06M.71 78.63c1.28-.38 3.33 0 4.91-.17h75.53c-26.46.4-53.69.06-80.44.17"/><path class="cls-4" d="M82.21 1H82c-.37-.85-3-.47-5.24-.47H1.06C13.19.14 27.82.47 40.93.36 54.28.25 68.09.58 81.15.2h1.06zm0 77.3C81.88 53.46 82 27.17 82 1.71c0 .15-.38-.71.18-.33zM0 1.38V1.2h.35c1 1.7.18 7 .18 9.6v57.73c0 2.68.75 7.44 0 9.6.41-1.17-.18-7-.18-9.26v-48c0-6.33.4-12.79 0-19.19 0-.28-.07-.32-.35-.33"/><path class="cls-4" d="M1.06 1.2C.74 24.64.88 49 .88 73.42a37.63 37.63 0 000 4.71c.34.32 4 0 5.09 0h70.62c1.62 0 3.77.36 4.39.17-2.14.68-7.11 0-10.19 0H5.45C4 78.3 1 78.44.71 78.13s0-3.42 0-4.88V1C27.4 1.15 54.57.81 81 1.2z"/><path class="cls-8" d="M36.54 11.47c.21-.22.07-.26 0-.5-1.48.54-1.27-.05.17-.17-.05.3.17.34.18.17.26.07 0 .15 0 .34s-.22.12-.35.16"/><path class="cls-4" d="M0 .19h81.15C68.09.58 54.28.25 40.93.36 27.82.47 13.19.14 1.06.54h75.7C79 .54 81.63.15 82 1h.17v.34c-.55-.38-.17.48-.17.33 0 25.46-.15 51.75.17 76.59v.5H0V1.38c.28 0 .33.05.35.33.4 6.4 0 12.85 0 19.19v48c0 2.28.59 8.09.18 9.26.75-2.16 0-6.92 0-9.6V10.8c0-2.56.78-7.9-.18-9.6H0zm81 1C54.57.81 27.4 1.15.71 1v72.25c0 1.46-.24 4.61 0 4.88s3.27.17 4.74.17h65.34c3.08 0 8 .68 10.19 0-.62.19-2.77-.17-4.39-.17H6c-1.1 0-4.75.32-5.09 0a37.63 37.63 0 010-4.71C.88 49 .74 24.64 1.06 1.2zM81.5 78c-.11-25.29.24-52-.17-76.42.11 25.3-.24 52.06.17 76.42M36.89 11.31c0-.19.26-.27 0-.34 0 .17-.23.13-.18-.17-1.44.12-1.65.71-.17.17.07.24.21.28 0 .5a20.44 20.44 0 00-3.16.68c.44-1 1.6-.37.17-1.18 0 .22-.31.15-.35.34.78 0-.16.43 0 .84-.43-.07-.38.3-.88.16-.49-.36-1 .2-1.41-.16 0 .79.69-.22.71.5a44.39 44.39 0 00-4.92 2c-.69-.28.13-1.07.7-.67 0-.2.31-.38 0-.51 0 .14 0 .34-.17.34-.19-.39-.86.17-1.05.34.35.11-.18.56.17.67 0-.09.14-.19.18 0s-.15.2-.18.33c.74.14 1.09.64 1.76.84.93-.83 2.48-1.09 3.69-1.67A32.58 32.58 0 0029 17a1.16 1.16 0 01.7 1c-.18 0-.44.08-.17.16.6.07.29.52.7 0 0 .32.3-.09.35.17s-.58.12-.52.51c.43.39.68-.33.87-.68-.43-.21-.54.09-.7-.16 0-.24.3-.29.35-.51a.87.87 0 01.53-.5c.35.17-.54.78.18 1 .07-.23 1-.48.53-.68-.09.3-.19-.07-.36-.16 0 .26 0 .58-.35.5.13-.37.43-.94.88-.5.18-.51-.39-.31-.7-.34 1.34-1.24 3.32-2.76 5.09-3a23.14 23.14 0 00-4.21 7.91h-1.43c.13.63-.21.81-.18 1.35 0 .19.28.18.53.17-.05 1.24-1.33 1.77.18 1.51A50.29 50.29 0 0030 33c-1 .11-2.46-.22-3.16.17-.17.34-.36.66-.53 1h-.17c.9 1.37 4.11.15 4.38-1 .52-.24.72-.78 1.24-1 .12-3.2 1-5.67 1.4-8.59 1.73-.76 4.9-.13 7.2-.33v.33c-1.93.24-6.13-.52-6.15.5.14-.39 4.47-.52 6-.16H34.6c1.59.39 3.93.05 5.8.16v4.55c.19.39 1.11.07 1.58.17-.62.1 0 .85.18.51-.5-.42.64-.68.7-.68.07-.84-.19-3.43.18-4.55h4.56c.35.08 1.62-.06.71-.16-2 .14-4.56-.32-6 .34-.13 1.4.23 3.25-.18 4.37v-5.37h.18c.41.24.42.25.52.5h5.45c.18 0 .44-.08.17-.17h-5.24c-.19 0-.27-.19-.35-.33h6.33a71.4 71.4 0 011.75 9.93h-1.23c-.49.13-.49-.51-.7-.34.08 1-.25-.07-.35.34.68.51-.33.84.17 1.34a2.17 2.17 0 01.71-1.34c0 .13 0 .33.17.33v1.18c.42.11 1.28-.21 1.41.17.11.63-.23 1.67.17 2 .21-.25.22-.69.53-.84 1 .25-.58.5 0 .5 0 0 1 .42.52.17 0-.17-.14-.2-.17-.34.26-.08.44-.24.7-.33 0 .42-.33.53.18.67-.41.77-1.3 1.85-.71 3-.22 0-.24.22-.52.17.29-.53-.66-.82-.18-.51.09.53-.41.82.18.51 0 .2 0 .48-.18.5 0-.18-.22-.13-.17.17.55.08.46-.45.87-.5a9.5 9.5 0 002.11 1.51c-.44.43 0 .81.36 1-.66 0 .51.42.35 0a2.59 2.59 0 01-.71-.5c0-.17.15-.2.18-.35 2.07 1.05 6 .33 7.55 1.86-.06 1.64-1.74 1.7-3.16 2h-1.76a10.7 10.7 0 01-5.44-2c-.86.25-1.13 1.06-1.93 1.35s-.7-.45-.88.34c-.69.3-.09-4.46-.53-3-.11 1.12.23 2.69-.17 3.53v-5.19a7.92 7.92 0 00.35-4c.22.66-.36 3-.35 3.87v-5.25c-.12-1.63.23-3.71-.18-5.05h-.7c0-.5 0-.58-.36-.34-3.62.11-7.72-.22-11.06.17 3.69.1 7.84-.23 11.24.17-3.85.29-9-.63-11.94.5 0-.31.2-.37.17-.67-1-.74-.69.42-.7.67.18-.22.17-.62.53-.67 0 .21-.51.82-.18.84a.89.89 0 01-.53.51C33.62 32 33 33 32 33.69c-.39-.37-.58.29-1.06.34.61-.29-.08-.86.18-.51-.05.46-1.37.58-1.05.84.31-.11.54-.18.7 0-.12.54-.79.12-.88.34.21 0 .19.26.18.51a.78.78 0 00-.53.17c.57-1.28-.53-.33-.35.33.32-.3-.4.9-.18.84 0 .19-.19.27-.35.34-.07-.75-.36-.25-.88-.51a1.06 1.06 0 000 1h.36a2.29 2.29 0 01-.88.84c-.08-.74-.37-.24-.88-.5a1.06 1.06 0 000 1h.35c0 .17-.14.2-.17.34-1 .74-1.77 1.78-2.82 2.52s-1.77 1.78-2.81 2.53c.08-.33.38-.42.36-.84-.31.09-1-.21-1.06.17.6.95.08-.25.88.16-.19.12-.91.57-.52.68 0-.1.14-.19.17 0a22.51 22.51 0 01-2.64 2.52 26.58 26.58 0 012.29-4.37c.87.07-.07.36-.18.49.45.44.75-.13.88-.49a.49.49 0 01-.52-.34.47.47 0 01.34-.51c.37 0 .17.63.53.68.05-.35.65-.16.7-.52-.13 0-.34 0-.35-.16s.14-.2.18-.33c-.69-.27-.06.73-.53.67-.49-.29-.16-.44-.17-1 .27 0 .61 0 .52-.34-.17 0-.2-.13-.35-.17 0-.1 0-.19.18-.17.54-.4 1-1.32 1.4-1.34-.56-.11.55-1.15.18-.84-.42 0-.33.59-.88.5.58-.91 1.08-1.88 1.58-2.86h.18c0-.1 0-.2.17-.17a.74.74 0 01-.17 1c.43 0 .42-.37.7-.5-.45 0-.28-.63-.53-.84 0-.14 0-.34.18-.34.53-.22 1-.58 1.4-.51-.36 0-.05-.74-.35-.84.14 0 .35 0 .35-.16-.33 0-.38.18-.7.16.31-1.06 1.72-2.8 1.41-3.36H16A9.57 9.57 0 0114.93 32c-.48-.48-.4.32-.7.51-.35 0-.35-.23-.53-.34 0 .19 0 .47-.17.5 0-.13 0-.33-.18-.34a13.71 13.71 0 011.41-2.69c.36.05 0 .75.52.67-.62-.55.48-1.55-.17-1.51.28-.24.69-.35.88-.67.52-.23 1-.58 1.4-.5-.42-.16.11-1.23-.7-1 .29-.28.38-.75.7-1 0 .42-.27.52-.35.84.77 0 .13 1.2.7.85-.18-.13.05-1.09-.17-1.18 0 .18-.29.4-.35.16.26 0 .75-.7.35-.83 0-.14 0-.34.17-.34-.12-.61-.58-.91-.7-1.52a.49.49 0 01.53.34c-.1 0-.2.14 0 .16 0-.19.19-.1.35 0 .17-.22.17-.62.52-.67a6.28 6.28 0 004.22 3.2c.07.24.21.29 0 .51.41.22.39-.09.7.33-.13-.46.35-.33.35-.67-.21 0-.49 0-.52-.17h1.23v.17c-.58.44 1.17.22.87-.17 0 .17-.3.21-.34 0a8.55 8.55 0 002.8-1.51c.36.05.35.45.7.5.06-.33-.23-.33-.34-.5.51-.2.65.8.87.34-.33-.05.11-.28-.17-.34-.19.22-.44-.71-.88 0v-.17c2.25-2.23 1.18-7.25-1.4-8.25 0-.17-.15-.2-.18-.33.4 0 .66-.05.7-.35-.51-.46-.45.56-1.23.35a6.06 6.06 0 00-6.67 1.84c0-.16.14-.19.17-.33-.73 0 0-.11 0-.34-.54.22-.5 0-1.23 0-.83.35.19.85.18 1.52 0 .14-1.09 1.89 0 1a4.83 4.83 0 00.17 3.2c-.41 0-.39.52-.7.67-.25-.26-.23-.79-.52-1-.4.24.21.41-.18.5h-.18c.16-.54-.57-.23-.7-.5-.09.25-.26.42-.35.67.3-.06.45.25.53 0-.14 0-.21-.14-.18-.33.21 0 .5 0 .53.16a2.3 2.3 0 01-.88 1.35h-.35c.21-.38.51-.74 0-1-.07.33-.68.14-.53.67.57.21.14-.54.71-.34-.27.37-.3 1-.71 1.18.56.2.43-.26.71-.33.06.57-.31.72-.53 1-.45 0-.26.65-.71.67a6.68 6.68 0 00-.35-.84c-.05.1-.43.65 0 .67.08-.42.38.28.35.51-.68-.14-.47 1-.17.5-.11 0-.21 0-.18-.16.26-.05.3-.28.53-.34a9 9 0 01-.88 1.85c-.71.29 0-.14 0-.5-.54-.08-.49.42-.7.67.48 0 .35.28.7 0a16 16 0 01-.87 2h-.18c0 .25-.29 0-.35-.17.17 0 .21.14.35.17-.17-.32.52-.56 0-.68.16.55-.58.24-.53.68a.46.46 0 01.35.5c-.19 0-.27-.25-.35 0 .41-.05.2.49.53.51-.15.64-.73 1.76-.35 2.35a11.54 11.54 0 01.87-1.84c.42.42.47.15 1.23.16.19-.16.06-.62.53-.5-.52 1.52-1.48 2.61-2.1 4-.91-.39 0-2-.71 0 .23 0 .25.21.53.16a.76.76 0 01-.35.68c-.22 0-.42-.05-.36-.34.21 0 .5 0 .53-.17-.45-.43-.74.14-.87.51a.46.46 0 01.52.33c0 .52-.37.66-.52 1-.48.47-.32-.41-.71-.5.16.21-.17 1.19 0 1 .1-.35.27-.36.53-.17-.29.4-.39 1-.7 1.35 0-.13 0-.33-.18-.34-.5.72-.82 1.81-1 1.85.1.49.27-.26.52-.17C8.57 44.26 7 47 5.62 49.85h-.17c-.22.66.41.5.88.5 0 .14 0 .34.17.34 5.68-.5 12.59.18 18.27-.34h.88c0 .31-.9.57-.36.85.19-.62.7 0 .89-.33-.11 0-.22 0-.18-.18.09 0 .2-.13 0-.17 0 .19-.19.26-.35.35a.81.81 0 01.17-.52c0-.16.14-.2.18-.33a23.34 23.34 0 001.58-1.85 27 27 0 019.49 0c-.14 0-.35 0-.36.17.52.15-.53.13-.17.67a.93.93 0 00.53-.17v.67c-.29 0-.36 1.11.17.84a59.75 59.75 0 0010 0H48c-1.85.63-6.18.28-8.6.34-.67 0-1.86-.32-1.94.33 2.1-.24 8.31.57 10.72-.5.29.38.47.43.53.68.28-.22 0-.9-.35-.51.12-.39.58-.45.7-.84.23.23.83.1 1.05.34 0 .32-.29-.1-.35.16.44.2-.27.56 0 .67.35-.38.63.3.35.51.36.15 1-.26.53-.33-.19.37-.36-.64-.7-.68.2-.41.66.35.87-.17-.13 0-.34 0-.34-.16 1-.1 1.35.38 2.28.33V51a.91.91 0 00-.88.34c.12.14 1 .38 1 0-.2 0-.5 0-.53-.16a.82.82 0 00.71-.33c-.14 0-.2-.16-.18-.35h.7c.36.39 1.46.07 2.12.17 0 .18-.15.2-.18.33.61-.08 1.66.26 1.75-.33.31-.09 1 .2 1.05-.17a23.3 23.3 0 0013-4.37c0 .78-.16.35.52 1 .24-.32-.23-.78-.17-1 0 .1 0 .2-.18.17a1.37 1.37 0 01.7-1c.61-.47 1-.71 1.41-1 0 .09.14.19.17 0-.32 0 .11-.28-.17-.34 0 .29-.3.38-.7.34 2-1.73 1.24-5.29-1.41-5.73a1 1 0 01.7-.67c0 .32-.19.37-.17.67.33 0 .57-.59.35-.84-.16.18-.39.12-.7 0a.75.75 0 01-.35.67c-1.35-.84-6.86-.38-7.21-1.85-.25-1.09 1.11-1.42 2.29-1.68h2.46a10.1 10.1 0 014.21 1.35c1-.31 1.28-1.25 2.11-1.69 0 .17-.14.21-.18.34.49.37.93.08.88-.17.35 0 .23.46.71.34 0-.2.31-.39 0-.51 0 .21-.06.4-.36.34 0-.17-.14-.2-.17-.34.13 0 .34 0 .35-.17a.47.47 0 01-.53-.33c.68-1.09 2-1.54 2.63-2.69-8.79-3.56-21.41-.51-25.46 5.21h-.18c.52-.87-.46-.39-1-.67a29.82 29.82 0 012.46-2.69c.38-.32-1.29-.11-1.76-.17a16.58 16.58 0 00-.35-3c.3-.18.22-1 .7-.51V29c-.57-.21-.13.54-.7.34-.71-1.8-.67-4.3-1.41-6.06h5.63c.22.85.69 1.46.87 2.35.13.52-.3.5-.18 1 .56-.28.5.84.71.34a3.49 3.49 0 01.7 1.85h-.18c0 .23-.3.16-.35.34.33.25.45.69.89.84 0 .21.22.23.17.5.75.11.72-.54 1.41-.5a7.86 7.86 0 00-.71-2.69c.26 0 1.12.7.71.34 0-.18-.14-.21-.18-.34.31-.41.94.28.53-.34-.48-.12-.35.33-.7.34-.2-.16-.06-.63-.53-.51 0-.42-.28-.52-.35-.84h.17c0-.13 0-.33.18-.34 0 .1 0 .2.17.17-.06-.5-.1-1-.52-1.18a.49.49 0 01-.35.51c0-.5-.4-.52-.36-1 1.39 0 3.58.05 4.4 0-.44-.38.18-.32.35-.83a.87.87 0 01.52.16c0 .59.62.65.7 1.18-.46-.05.47.66-.35.51 0 .81.44 1.29 0 1.85.36-.56 1 .19.88-.17-.1 0-.2-.13 0-.17s.2-.13 0-.17c-.84.06-.64-1.2-.35-1.51a18.22 18.22 0 012.11 3.53h1.76c0-.64-.45-.8-.53-1.34.49.2.65.72 1 1 .15.7-.47.66-.7 1 1 .23 1-1.41.88-1.69-1.17.61-.81-1.35-1.41-.67-.25-.54-.65-.94-.88-1.52.2 0 .28.25.35 0-.19 0-.41-.27-.17-.33.68.27.2.77.53 1.18.6-1.22-.75-1.27-1.06-1.85.4.13 1.42.54 1.06 0-.09.44-1-.58-1.23 0a18 18 0 01-1.94-2.53c.25 0 .34-.24.71-.17.22.42-.09.53.18.68.3-.5 0-.78-.54-1.18 0 .36-.14.53-.52.5a31 31 0 00-11.58-8.25c.62-.46 0-.75-.36-1.18.14.42-1.19.28-.52.67.57-.64 1.11 0 .7.34a34.53 34.53 0 00-15.63-1.85m-4.39 5c.43-.48 1.36.55 1 .16-.25-.24-.26-.65.35-.51.15-.53-.27-.52-.52-.67 0 .94-.33.51-.88 1m0 3.36c-.17.24-1.18 1.18-.35.84-.11 0-.21 0-.18-.17.39.07 1-.5.53-.67m-2.64.51c.15-.4-.61-.73-.18-.85s.26.79.71.34c-.57-.14-.62-1.44-1.41-1.35.17.29.59.34.7.68-.25.07-.29.2-.52 0a3 3 0 01.52 1.85c.06-.39.48-.39.53 0s-.9.57-.35.84c.49-.72.19.7.53.67.32-.32-.14-.85-.35-1.18.6-.14.08-1.49-.18-1M26.35 31.5c.31.15.29.62.7.68-.26-.63-.37-.29.18-.68-.52 0-.65-.23-.88 0m-10.71-2c.1 0 .2 0 .17.17s-.35 0-.35.17c.22 0 .42.05.35.34-.39-.13-.72.61-.35.67.44-.44.74-1.58.18-1.35m-10 17.84c.27.63.38.3-.17.68.51 0 .65.23.88 0-.31-.15-.3-.62-.71-.68m.71 3.55c0 .17.08.42.17.15H25c-5.45-.66-12.88-.33-18.62-.15M36.19 48c-2.12.39-5 .06-7.38.17-.2.35-.19.35.17.17a73.5 73.5 0 017.56.16.47.47 0 00-.35-.5m13.17 4.55c-.08-.76.62-.76.7-1.35-.31.24-1-.14-.7.16.58.18-.69 1.43 0 1.19m1.58-.85h-.7a9 9 0 00-.7 2.53c-.7 0 .13-.52-.35-.68 0 .11 0 .2-.18.18 0-.2-.19-.27-.35-.34 0 .85.55 1 .88 1a3.58 3.58 0 00-.35 1.51h-.53a18.91 18.91 0 00-5.62 0h-.88c-.12-1.34.23-3.14-.18-4.21h-1.4c-.41 1-.06 2.63-.18 3.87-1.59-.38-3.91-.06-5.8-.17 1.47.51 4.16-.16 5.62.34-1.81.11-4.09-.22-5.62.17-.73.09-1.3 0-1.4-.51-.44-2-.87-4.1-1.23-6.22h-1.58a14.87 14.87 0 00.35 2.52c-.72.06.16 1.63.17.85.33.92.37 2.12.71 3 .17.61-.69.24-1.06.34-.56.06-2.69-.62-3-.34.07-.07 2.85-.13 2.81-.17-.57-.55-2.68.31-3 .17-.13 0-.2.14-.17.34h-1.02c.06-.74-.51-.86-.53-1.51.39-.43.66-1.51.35-1.52 0 .42-.4.41-.53.67 0-.42-.27-.52-.52-.67s-.15-.87-.53-1c-.17-.36-2.26-.27-1.41.34a9.93 9.93 0 001.23 3c-.17 0-.21.13-.35.16.15-.35-.45-.75-.53-.33.31.15.32.59.53.84h-.53c-1-.6-3.66.38-4.39-.51 1.08.37 2.86.07 4.22.17-.26-.37-2.73-.07-3.87-.17-.21-.19-.31-.47-.88-.33a25.22 25.22 0 01-2.1-3.2c-.11-.31-2.28-.3-1.58.17a23.27 23.27 0 004.56 6.56c-.25 0-.29-.27-.52-.33-.25.11-.93 1.18-.53.83.3-.78.51.36.7 0s-.68-.4-.17-.5c.22 0 .24.22.52.17.75.46 1.19 1.22 1.94 1.68a47.38 47.38 0 005.09 3.71c-.31.31-.52-.07-.88-.17 0 .32-.2.37-.18.67.33 0 .38-.13.18-.33.59-.26.66.8 1.06.16-.14 0-.35 0-.35-.16s.34 0 .35-.17c1.5.8 3.12 1.5 4.74 2.19-.4 1.65 2.81.33.53.67-.1-.25-.26-.42-.36-.67a27.06 27.06 0 004.92 1.18c-.08.63-.77-.13-.35.5-.58.2-1.43-.7-1.23-.17.51 0 1.1 1.28 1 .67-.19 0-.27-.18-.35-.33a3.92 3.92 0 011.41 0c.18-.79-.59.27-.7-.34.21 0 .41 0 .35-.33a22.69 22.69 0 005.44.33c-.33.8-2.5-.15-2.81.67h.35c.26-.14.72.2 2.11.17-.07-.42.8-.78 1-.34-.43 0-.85 0-.87.34.52-.18 1.23-.06 1.4-.17-.2 0-.19-.26-.17-.5-.26 0-.65.06-.7-.17a29.66 29.66 0 008.78-1.51c0 .16-.15.19-.18.33.41 0 .41.45.18.68.84-.19.06-.69 1.22-.34.2-.35.19-.36-.17-.17-.41-.25-.76.05-.88-.17 0-.22.73-.31 0-.33.15-.26.57-.25.88-.34.51.09-.27.26-.18.5.52-.14.61-.21.88.17 0-.42-.28-.52-.35-.84a37.5 37.5 0 008.08-4.72c.45.05-.24.3 0 .69a.76.76 0 01.53.16c.22-.54-.57-.13-.35-.68.2 0 .5 0 .52-.17-.21 0-.41 0-.35-.33 1.34-1.13 2.44-2.49 3.69-3.7.2 0 .83.52.35.67 0-.09-.14-.19-.18 0 .36.29.35-.13.71.17-.3-.43.2-.59-.17-.84.08.69-.48 0-.54-.17.65.09 1.49-1.17 1.23-.84-.69 0-.53.71-1.23.67.84-1 1.51-2.15 2.29-3.2.18 0 .21-.14.35-.16a.47.47 0 00.35.5c0-.28.49-.09.53-.34-.25-.06.18-1.15-.53-.67.73 0 0 .11 0 .33.72-.07 0 .46-.17.52 0-.32-.2-.38-.18-.68.42-1.34 1.3-2.24 1.58-3.7a3.51 3.51 0 00-2.81 2.18c-.79 0-.72 1.07-.53 1.18-.6 1.16-1.42 2.12-2.11 3.2h-.87a10.71 10.71 0 00-4.22 0h-.18c0-.29.31-.38.71-.34 1.95.28 2.85-.38 3.52-.17-.77-.24-3.1.3-4.23-.16.45-1.09 1.16-1.94 1.24-3.37h-.96c.43-.22-.19-.62.18-.67.11 0 .21 0 .18-.18-.83.18-1 .94-1.59 1.35.26 0 .3.28.53.34-.57 1-1 2.2-1.58 3.2h-.52a10.71 10.71 0 00-4.22 0h-.71a18.22 18.22 0 00.88-4.21h-.52c.47-.55.4-.77 1.05-1-.54-.35-1.09.45-1.23 1m16.51-2.35c-.28-.31-.56.12-.88-.34.33.85.14.92.88.34a.72.72 0 01-.18.5c.43.17.59-.76.36-.67 0 .1 0 .2-.18.17m-3.87 6c-.13 0-.34 0-.34-.16s.34 0 .34-.17c-.23 0-.15-.29-.34-.34 0 .21-.51.83-.18.84 0-.1 0-.2.18-.17a.17.17 0 00.34 0M58 51.53c-.12-.45.35-.33.35-.66a1.36 1.36 0 01-1.05 0c0 .49.49.08.7.66m3.17-1c.21 0 .11.19 0 .35.65 0 .5-.19 1 0 .1-.45-1-.58-1-.35m1-.17h.36c-.52.37.68.78.7.17-.32 0-1.37-.61-1.06-.17m14.93-20c.14 0 .21.15.18.34.55-.28.72.63.88.17-.55.05.44-.48-.18-.51 0 .2-.28.19-.53.17 0-.18-.29-.4-.35-.17m-16.68.84c.11 0 .2 0 .17-.16-.28-.17-.4-.45-.17-.68-.4 0-1 1.3-.71.84.31-.14.68-.55.36 0zm-4.57-6.89c-.44.44 1.06 1.48 1 .67a.7.7 0 01-.88-1c-1.59-.1-3.61.21-4.91-.17.83.88 3.61-.1 4.74.51m6.5-4.72c.31.28.87-.15 1.22-.33a.87.87 0 01-.52-.17c.12.45-.36.33-.52.5.15-.1.55-.9.17-.5-.05.24-.29.28-.35.5m-13-7.91c0-.19-.77-.58-.88-.17.6-.11 1.07.75 1.41.34.39-.58-.58-.23-.35-1h-.35c0 .17-.15.2-.18.34.36-.15.79.44.35.5m-20.2 1c-.07-.28.66 0 .7.17-1.16-.05.2.47.18-.17-.23-.29-1.31-.43-.88 0m32.5 5c0 .42-.34.53.17.67 0-.78.4.2.71.17-.06-.29.49-.84 0-1 .19 1.11-.52.38-.88.17m-6 5.89c-1.35.11-3.17-.22-4.22.17 1.35-.11 3.16.22 4.22-.17m-2.82 3.2c-.59.16-.13-1.54-.7-.84.61 1.23-.09 2.41.7.84m-3.68 0a.8.8 0 00-.36-.84c-.11.4-.35.87.36.84m-25.3 1.85q.21 0 .18-.33c-.14-.23-1.72-.43-1.59.16-.72.44 1.34.5 1.41.17m33.19-.5c-.07.52.45.47.71.67.06-.37.27-1.07 0-.84-.08.55-.15.57-.71.17m9.32 1c-.36 0-.17-.63-.53-.68 0 .14 0 .33-.18.34s0-.33-.17-.34c0 .32.2.38.17.68-.09 0-.19.13 0 .17a1.26 1.26 0 01.35-.51c.1.77.92.48 1.23.17-.83.24-.67-.48-1-.67-.15.39.62.72.18.84m-50.24.67c3 .39 6.73.06 10 .17.19-.35.19-.36-.18-.17-3.16-.11-6.79.22-9.66-.17.23-.46-.7-.58-.18-.33zm46.38.34c0-.23.3-.16.35-.34-.43-.43-.38.35-1.06.17.51-.54-.69-.19-.7-.17a2.88 2.88 0 001.41.34m-33 1.18c0-.23-.48-.22-.53 0 .87.13.05.84.88 1-.71-.44.22-1.27-.18-1.34 0 .13 0 .33-.17.34m-.7 1.34c.29-.35-1.71.07-1.58-.67 0 .13 0 .32.17.33 0 .53.88.29 1.41.34m49 .68c0-.6-.26 0-.71-.34-.06.25-.81 1.15-.35.84.06-.59.47 0 .53-.34-.37-.24.18-.35.53-.16m-27.21 2.18c-.06.41.13-.54.35-.67h-.35c-.11 0-.21 0-.17.17-.29 1.14-.05 2.05.17.5m20 .84c.1-.1.72-.51.18-.67 0 .79-.32-.12-.53-.17-.1.35-.37.55-.53.84.57.15.37-.43.71-.5.39.24-.22.41.17.5m-3.16.68c0-.52 1 .07.35.17-.44-.21.45.43.53-.34-.31-.09-.73-.09-.88-.34.1 0 .2-.13 0-.17-.12.3-.19.53 0 .68m-44.09 3.7c.66.09-.1-.89-.52-.84-.19.63.66.27.52.84m33.72 4.72c.09-.15.23-1.19 0-.85-.2.66-.45 0-.69-.16 0 .2-.06.39-.36.33-.07-.26-.21 0 0 .17.65-.35.68.19 1 .51M49 52.37c0-.56.35-.89-.18-1.17-.16.43-.28.95.18 1.17m-35.48 0c.3-.06.45.25.52 0-.42-.56.46.41.35 0-.38-.24.23-.41-.17-.5-.05.59-.78-.31-.7.17.21 0 .11.19 0 .33m29 2.87c0-.63.14-3.1-.17-2.36.09.75-.27 2.83.34 2.52-.1 0-.2 0-.17-.16m.35-.17c-.08-.66.19-2.53-.18-2.36.09.66-.18 2.53.18 2.36m6.13.33h-3.15c-.94.12-2.34-.22-3 .17 2-.1 4.45.23 6.15-.17m-5.08 12.8c.33-.31-.42 0 0 .5.41 0 .65-.27 1.23-.17-.16-.66 1 0 .52-.33-.11-.28-1.13-.14-.7-.17.49.22-1.16.77-1 .17m37.18 10.26H5.62C4 78.58 2 78.25.71 78.63c26.75-.11 54 .23 80.44-.17M56.74 53.89c-.05.26-.39.12-.53 0 0 .21-.05.4-.35.34-.15.34.15 1 .35.5-.14 0-.21-.14-.18-.33.23 0 .25-.22.53-.17 0 .19-.31.38 0 .5 0-.2.71-.63.18-.84m-2.81 1.68c4.55 0-1.23-.42-2.29 0h2.29m-1.94-3c-.09 0-.19.13 0 .16 0-.17.31-.21.35 0-.32 1 .45-.34-.35-.67.23 0 .36.26.35-.17a.87.87 0 00-.52.17.8.8 0 00.17.51"/><path class="cls-8" d="M33.2 12.15c-.16-.41.78-.87 0-.84 0-.19.35-.12.35-.34 1.43.81.27.15-.17 1.18zm-1.58.5c0-.72-.75.29-.71-.5.39.36.92-.2 1.41.17 0 .31-.59.1-.7.33m-5.1 2.19c0-.19-.17-.09-.17 0-.35-.11.17-.56-.17-.68.19-.16.86-.72 1.05-.33.17 0 .14-.2.17-.34.31.13 0 .31 0 .51-.57-.4-1.39.39-.7.67 0 .11 0 .2-.18.17M29.68 18c.56.08.47-.45.89-.51-.06.22-.32.27-.36.51.16.25.27-.05.7.16-.19.35-.44 1.07-.87.68-.06-.39.51-.19.53-.51s-.32.15-.36-.17c-.41.52-.1.07-.7 0-.27-.08 0-.17.17-.16"/><path class="cls-10" d="M31.09 17a.83.83 0 00-.52.5c-.42.06-.33.59-.89.51a1.15 1.15 0 00-.7-1 32.58 32.58 0 012.82-2.69c-1.21.58-2.76.84-3.69 1.67-.67-.2-1-.7-1.76-.84 0-.13.18-.16.18-.33.15 0 .16-.06.17-.17a42.54 42.54 0 014.92-2c.11-.23.68 0 .7-.33.5.13.45-.24.88-.17h.18a19.33 19.33 0 013.16-.68c.13 0 .35 0 .35-.16a34.53 34.53 0 0115.63 1.85c0 .14.07.16.18.16a31.11 31.11 0 0111.59 8.25c0 .15.07.16.17.17a18.62 18.62 0 001.94 2.53c0 .51.37.66.52 1 .23.58.63 1 .88 1.52 0 .13.18.17.18.34.08.54.55.7.53 1.34h-1.76a18.22 18.22 0 00-2.11-3.53c0-.2 0-.3-.18-.34-.08-.54-.66-.59-.7-1.18 0-.13-.18-.16-.18-.33-1.81.11-4.09-.22-5.62.17.07.21.32.26.35.5s.18.17.18.34c0 .49.4.51.35 1 .08.32.38.42.36.84s.37.42.35.84a.78.78 0 01.17.51 7.92 7.92 0 01.71 2.71c-.69 0-.66.61-1.41.5 0-.27-.16-.29-.18-.5a2.6 2.6 0 00-.35-1.18 3.53 3.53 0 00-.7-1.85 1.9 1.9 0 00-.53-1.35c-.18-.89-.65-1.5-.87-2.35a19 19 0 00-5.63 0c.74 1.76.7 4.26 1.41 6.06V30a16.58 16.58 0 01.35 3c.25.38 1.22.06 1.76.17a29.82 29.82 0 00-2.46 2.69v.17c-.31.15-.32.59-.53.84-.4-.35-.06-1.4-.17-2-.13-.38-1-.06-1.41-.17v-1.51h1.23a71.4 71.4 0 00-1.75-9.93 31 31 0 00-7.21 0v5.38h-1.4v-5.55h-7.2a.71.71 0 00-.18.5c-.41 2.92-1.28 5.39-1.4 8.59-.52.23-.72.77-1.23 1-.57.93-2.76 2.05-4.22 1 .17-.35.36-.67.53-1 1-.11 2.45.22 3.16-.17a50.29 50.29 0 011.23-8.25c0-.14.17-.17.17-.34-.14-.44.54-.92 0-1.17h-.35c-.25 0-.5 0-.52-.17 0-.54.3-.72.17-1.35h1.41a23.14 23.14 0 014.21-7.91c-1.77.27-3.75 1.79-5.09 3-.15 0-.17.06-.18.17m9-4a7.21 7.21 0 00-3.34 2.86c0 .16-.14.2-.17.34-.25 0-.2.37-.35.5s-.23.15-.23.31a25.76 25.76 0 00-1.76 3.7 3.55 3.55 0 01-.35 1h6.5c.41-2.64.06-6 .18-8.92-.21 0-.5 0-.53.17m2.11 8.75h.52c1.94-.11 4.34.23 6-.17a26.15 26.15 0 01-1.4-3.37h-.18v-.34c-.23 0-.15-.29-.34-.33a4.31 4.31 0 00-1.41-2.19v-.17A6.59 6.59 0 0042.51 13c-.87-.4-.49.85-.53 1.68a47.33 47.33 0 00.18 7.07m6.32-6.9c-.72-.33-1.71-1.27-2.46-1 .62.25.76 1 1.23 1.34a1.26 1.26 0 00.35.51c.94 2 2.19 3.63 2.64 6.06h4c.31-.1 1 .2 1-.17-.24 0-.2-.37-.35-.5-.29-.56-.8-.91-1-1.52h-.18c0-.17-.14-.2-.18-.34-.18-.44-.69-.56-.87-1a10 10 0 00-1.76-1.68A14.12 14.12 0 0048.83 15c-.18 0-.2-.14-.35-.17m5.8 1c-1-.38-2.34-1.35-3.34-1.18a21 21 0 016.14 7.07c1.65-.11 3.75.22 5.1-.17-1-.7-1.66-1.77-2.81-2.36-.15-.24-.26-.53-.7-.5a14.5 14.5 0 00-4-2.7c-.18 0-.21-.13-.35-.16"/><path class="cls-8" d="M31.09 17c0-.1 0-.2.18-.17.31 0 .88-.17.7.34-.45-.44-.75.13-.88.5.38.08.34-.24.35-.5.17.09.27.46.36.16.46.2-.46.45-.53.68-.72-.23.17-.84-.18-1m2.29-1.67c.25.15.67.14.52.67-.61-.14-.6.27-.35.51.31.39-.62-.64-1-.16.55-.51.87-.08.88-1M32 20.39c0 .14.07.16.18.17-.84.34.18-.6.35-.84.44.17-.14.74-.53.67m-2 .84c.21.33.67.86.35 1.18-.34 0 0-1.39-.53-.67-.55-.27.36-.53.35-.84s-.47-.39-.53 0a3 3 0 00-.52-1.85c.23.2.27.06.52 0-.11-.34-.53-.39-.7-.68.79-.09.84 1.21 1.41 1.35-.45.45-.25-.32-.71-.34s.33.45.18.85c.26-.49.78.86.18 1m1.09 2.03h.35c-.28.33 0 .21 0 .67-.36-.35-.35.07-.53.34.07.19.31.42.36.16h.17c0 .17-.14.2-.17.34-1.51.26-.22-.26-.18-1.51"/><path class="cls-7" d="M26.35 34.2c1.46 1 3.65-.08 4.21-1-.28 1.16-3.48 2.38-4.38 1h.17"/><path class="cls-8" d="M40.4 24.1c-1.87-.12-4.21.22-5.8-.17h5.62c-1.5-.36-5.83-.23-6 .17 0-1 4.22-.27 6.15-.51zm1.76 4.54c.41-1.12.05-3 .18-4.37 1.41-.66 4-.2 6-.34.91.1-.36.24-.71.17H43c-.37 1.11-.11 3.7-.18 4.54-.06 0-1.2.26-.7.68-.18.34-.8-.41-.18-.51 0-.1 0-.2.18-.17m.52-.17c-.11-1.34.24-3.14-.17-4.2.12 1.34-.24 3.13.17 4.2m-.3-5.21h.52c.08.14.16.3.35.33h5.27c.27.09 0 .18-.17.17h-5.45c-.1-.25-.11-.26-.52-.5m7.37 10.26c-.17 0-.14-.2-.17-.33a2.17 2.17 0 00-.71 1.34c-.5-.5.51-.83-.17-1.34.1-.41.43.66.35-.34.21-.17.21.47.7.34zm3.34 3.2c-.51-.14-.2-.25-.18-.67-.26.09-.44.25-.7.33 0 .14.17.17.17.34.44.25-.52-.17-.52-.17-.58 0 1-.25 0-.5v-.17c.59.28 1.57-.2 1 .67H53zm-.71 3.37c-.41 0-.32.58-.87.5 0-.3.17-.35.17-.17.21 0 .15-.3.18-.5-.59.31-.09 0-.18-.51-.48-.31.47 0 .18.51.28 0 .3-.16.52-.17zm2.11 1.51c.11 0 .21 0 .18.16s-.18.18-.18.35a2.59 2.59 0 00.71.5c.16.42-1 0-.35 0-.32-.2-.8-.58-.36-1m-6.14 4.2c.4-.84.06-2.41.17-3.53.44-1.43-.16 3.33.53 3 .18-.79.05-.06.88-.34-.34.47-1.18 1.34-1.58 1.18zm0-5.39c0-.9.57-3.21.35-3.87a7.92 7.92 0 01-.35 4zm-13.18-9.59c-.33 0 .14-.63.18-.84-.36.05-.35.45-.53.67 0-.25-.33-1.41.7-.67 0 .3-.21.36-.17.67 0 .11 0 .2-.18.17"/><path class="cls-10" d="M34.6 31.34a.89.89 0 00.53-.51c.15 0 .17-.06.18-.17 3-1.13 8.1-.2 11.94-.5h.88v10.6c.12 1.74-.23 3.92.18 5.39.4.16 1.24-.71 1.58-1.18.81-.29 1.07-1.1 1.93-1.35a10.7 10.7 0 005.44 2 2 2 0 001.76 0c1.42-.32 3.11-.38 3.16-2-1.56-1.54-5.48-.81-7.55-1.85 0-.14-.07-.16-.18-.17a9.5 9.5 0 01-2.11-1.51v-.34c-.59-1.18.3-2.26.71-3v-.17c4.05-5.72 16.67-8.77 25.46-5.21-.61 1.15-2 1.6-2.63 2.69-.36 0-.34.45-.7.5-.83.44-1.13 1.39-2.11 1.69a10.1 10.1 0 00-4.21-1.35 3.71 3.71 0 00-2.46 0c-1.18.26-2.54.59-2.29 1.68.35 1.47 5.86 1 7.21 1.85 0 .15.06.16.17.17 2.65.44 3.38 4 1.41 5.73-.2.37-.59.55-.71 1a.83.83 0 00-.52.5c-.16.08-.32.15-.35.34a23.3 23.3 0 01-13 4.37H52.7c-.93 0-1.3-.43-2.28-.33h-.36c-.22-.24-.83-.11-1.05-.34-.41-.05-.83-.42-.7.34H37.07V48.5c.37 0 .08-.59.17-.84-3.08.3-7.44-.62-9.66.51A23.34 23.34 0 0126 50c-2.19.29-6.5.17-10.36.17-3.58 0-8.09.26-10-.34C7 47 8.57 44.26 10 41.43a2.93 2.93 0 00.71-1.34c.31-.38.41-1 .7-1.35 0-.14.18-.17.18-.34.15-.35.53-.49.52-1 .17 0 .14-.21.18-.33a.74.74 0 00.35-.68c.15 0 .16-.06.18-.16.62-1.43 1.58-2.53 2.1-4V32A9.57 9.57 0 0016 30.16h10.52c.32.56-1.09 2.3-1.4 3.36v.17a3.15 3.15 0 00-.7 1v.17c-.17 0-.14.2-.18.34a1.22 1.22 0 00-.35.5c-.5 1-1 1.95-1.58 2.86-.2.59-.69.91-.7 1.68-.16 0-.17.07-.18.17-.14.42-.48.67-.53 1.18a.47.47 0 00-.34.51c-.18 0-.14.2-.18.34a26.58 26.58 0 00-2.29 4.37.83.83 0 00-.52.5 16.55 16.55 0 003.33-3c1-.75 1.77-1.79 2.81-2.53a24.66 24.66 0 002.81-2.69c1.83-1.61 3.59-3.3 5.28-5a26.38 26.38 0 002.8-2.69m3.87 6.22a1.06 1.06 0 00.18-.84c-.81.13-.92.92-1.41 1.35-.14 0-.21.14-.17.33a62.89 62.89 0 00-4.22 4.72h4.74a31 31 0 01.88-5.39z"/><path class="cls-9" d="M32 33.69c1-.69 1.62-1.69 2.6-2.35A25.46 25.46 0 0131.8 34c0-.14.17-.17.17-.34"/><path class="cls-8" d="M29 36.55c-.22.06.5-1.14.18-.84-.18-.66.92-1.61.35-.34a.84.84 0 01.53-.16c0-.25 0-.48-.18-.51.09-.22.76.2.88-.34-.16-.18-.39-.11-.7 0-.32-.26 1-.38 1.06-.84-.27-.35.42.22-.19.51.48-.05.67-.71 1.06-.34 0 .17-.14.2-.17.34-.41.11-.48.55-.89.67a.82.82 0 00-.87.84 3.53 3.53 0 01-1.06 1m-.89.85h-.36a1 1 0 010-1c.52.25.81-.25.88.5 0 .1 0 .2-.18.17 0-.24 0-.48-.17-.51-.05.35-.47.33-.53.68h.53c0 .1 0 .2-.17.16m-1.41 1.35h-.35a1.06 1.06 0 010-1c.51.26.8-.24.88.5 0 .11 0 .21-.17.17 0-.23 0-.47-.18-.5-.05.34-.48.33-.53.67h.53c0 .1 0 .2-.18.17"/><path class="cls-7" d="M26.52 39.08c0-.14.18-.17.18-.34.15 0 .17-.07.18-.17s.16-.06.17-.17.17-.06.18-.17a2.29 2.29 0 00.88-.84c.15 0 .16-.06.17-.16s.17-.07.17-.17c.15 0 .17-.07.18-.17.16-.07.32-.15.35-.34a3.41 3.41 0 001.06-1 2.27 2.27 0 00.87-.84c.41-.12.48-.56.89-.67-1.69 1.75-3.45 3.44-5.28 5"/><path class="cls-6" d="M23.71 41.6c1.05-.74 1.78-1.78 2.81-2.52a24.58 24.58 0 01-2.81 2.68z"/><path class="cls-8" d="M20.73 44.3c0-.19-.18-.1-.17 0-.39-.11.33-.56.52-.68-.8-.41-.28.79-.88-.16 0-.38.75-.08 1.06-.17 0 .42-.28.51-.36.84v.17zm-.35-1.85c0-.14 0-.34.18-.34a.49.49 0 00.52.34c-.13.36-.43.93-.88.49.11-.13 1.05-.42.18-.49m.52-.85c.05-.52.39-.76.53-1.18.15 0 .18.17.35.17.09.36-.25.32-.52.34 0 .57-.32.72.17 1 .47.06-.16-.94.53-.67 0 .13-.18.16-.18.33s.22.13.35.16c-.05.36-.65.17-.7.52-.36-.05-.16-.63-.53-.68m1.41-3.02c.55.09.46-.45.88-.5.37-.31-.74.73-.18.84-.41 0-.86.94-1.4 1.34 0-.77.5-1.09.7-1.68m1.58-2.86a1.22 1.22 0 01.35-.5c.24.21.08.82.53.84-.28.13-.27.53-.7.5a.74.74 0 00.17-1c-.14 0-.16.07-.17.17zm.53-1.01c.71.12.43-.71 1-.67.07-.29-.14-.32-.35-.34v-.17c.32 0 .37-.2.7-.16 0 .16-.21.13-.35.16.3.1 0 .8.35.84-.37-.07-.87.29-1.4.51zm2.81-3.2c-.55.39-.44.05-.17.68-.42-.06-.4-.53-.71-.68.23-.23.37 0 .88 0m-11.77-.67c-.37 0 0-.8.35-.67.07-.29-.14-.32-.35-.34 0-.16.21-.13.35-.17s-.07-.16-.17-.17c.56-.23.26.91-.18 1.35M14.93 32v.17c-.47-.12-.34.34-.53.5-.76 0-.81.26-1.23-.16 0-.15.07-.17.18-.18s.14.21.17.34c.21 0 .15-.31.18-.5.18.11.18.38.53.34.3-.19.22-1 .7-.51m-.17-2.35c.07-.32.37-.42.35-.84.65 0-.45 1 .17 1.51-.48.08-.16-.62-.52-.67m1.4-1.65c.51 0 .3-.72.88-.67 0-.24 0-.48-.18-.51h-.17v-.17c.81-.21.28.86.7 1-.37-.08-.88.27-1.4.5 0-.11 0-.21.17-.17"/><path class="cls-8" d="M17.57 25.45c.4.13-.09.79-.35.84.06.23.31 0 .35-.17.22.09 0 1.05.17 1.18-.57.35.07-.83-.7-.85.08-.32.38-.42.35-.84 0-.1 0-.2.18-.16m.87-2.03c-.36 0-.35.45-.52.68-.16-.11-.32-.2-.35 0-.2 0-.1-.17 0-.17a.49.49 0 00-.53-.34v-.17c.4-.09-.21-.26.18-.5.29.22.27.75.52 1 .31-.15.29-.62.7-.67zm4.22 3.2h.53c0 .2.31.14.52.17 0 .34-.48.21-.35.67-.31-.42-.29-.11-.7-.33.21-.22.07-.27 0-.51m1.76 0H25c0 .21.34.17.34 0 .3.39-1.45.61-.87.17zm3.51-1.68v.17c.44-.71.69.22.88 0 .28.06-.15.29.17.34-.22.46-.36-.54-.87-.34.11.17.4.17.34.5-.35-.05-.34-.45-.7-.5 0-.11 0-.2.18-.17m-1.41-8.25a.79.79 0 01-.7-.33c.78.21.72-.81 1.23-.35 0 .3-.3.39-.7.35 0 .13.17.16.17.33m-8.25 3.37c-1.09.88 0-.87 0-1 0-.67-1-1.17-.18-1.52.73 0 .69.22 1.23 0 0 .23-.73.32 0 .33 0 .14-.17.18-.17.34s-.14.2-.18.34c-.15-.1-.31-.2-.35 0-.18-.12 0-.5-.35-.84-.32.58 0 .93.17 1.51-.28 0-.3.16-.52.17.43.3.26.28 0 .68.14 0 .17-.17.35-.17zm-1.41 3.36h-.17c0-.2-.32-.14-.53-.16 0 .19 0 .29.18.33-.08.25-.23-.06-.53 0 .09-.25.26-.42.35-.67.13.27.86 0 .7.5m-1.22 1.52c-.28.07-.16.53-.71.33.41-.22.44-.81.71-1.18-.57-.2-.14.55-.71.34-.15-.53.46-.34.53-.67.51.27.21.63 0 1h.35c0 .1 0 .2-.17.17M14.58 27c-.23.06-.27.29-.53.34 0 .14.07.16.18.16-.29.5-.51-.64.17-.5 0-.23-.27-.93-.35-.51-.43 0-.05-.57 0-.67a6.68 6.68 0 01.35.84c.45 0 .26-.65.71-.67 0 .5-.46.57-.53 1M13.7 29c-.35.28-.22 0-.7 0 .21-.25.16-.75.7-.67 0 .36-.71.79 0 .5zm-1.05 3c-.33 0-.12-.56-.53-.51.08-.24.16 0 .35 0a.46.46 0 00-.35-.5c0-.44.69-.13.53-.68.52.12-.17.36 0 .68-.14 0-.18-.17-.35-.17.06.19.31.43.35.17h.18c.12.52-.19.61-.18 1m0 4.39c-.28 0-.3-.16-.53-.16.74-2-.2-.39.71 0 0 .1 0 .2-.18.16m-.53 1.01a.46.46 0 00-.52-.33c.13-.36.42-.94.87-.51 0 .2-.32.15-.53.17-.06.29.14.32.36.34 0 .12 0 .33-.18.33m-.7 1.35c-.25-.19-.43-.18-.53.17-.17.18.16-.8 0-1 .39.09.23 1 .71.5 0 .17-.15.2-.18.34M10 41.43c-.25-.09-.42.66-.52.17.23 0 .55-1.13 1-1.85.17 0 .14.21.18.34a2.93 2.93 0 01-.66 1.34M6.33 48c-.23.23-.37 0-.88 0 .55-.38.44 0 .17-.68.41.06.4.53.71.68M25 51H6.5c-.09.27-.18 0-.17-.15 5.74-.18 13.17-.51 18.62.15m.87-.65a.81.81 0 00-.17.52c.16-.09.31-.16.35-.35.2 0 .09.17 0 .17 0 .15.07.16.18.18-.19.35-.7-.29-.89.33-.54-.28.37-.54.36-.85z"/><path class="cls-6" d="M5.62 49.85c1.93.6 6.44.34 10 .34 3.86 0 8.17.12 10.36-.17 0 .13-.18.17-.18.33H6.33c-.47 0-1.1.16-.88-.5z"/><path class="cls-9" d="M27.58 48.17c2.22-1.13 6.58-.21 9.66-.51-.09.25.2.87-.17.84v-.33a27 27 0 00-9.49 0"/><path class="cls-8" d="M36.54 48.5a73.5 73.5 0 00-7.54-.16c-.36.18-.37.18-.17-.17 2.4-.11 5.27.22 7.38-.17a.47.47 0 01.35.5M49 49.85c-.12.39-.58.45-.7.84.34-.39.63.29.35.51-.06-.25-.24-.3-.53-.68-2.41 1.07-8.62.26-10.72.51.08-.66 1.27-.32 1.94-.34 2.42-.06 6.75.29 8.6-.34.14 0 .35 0 .36-.16-.12-.76.29-.39.7-.34m1.42.34c0 .16.21.13.34.16-.21.52-.67-.24-.87.17.34 0 .51 1 .7.68.44.07-.17.48-.53.33.28-.21 0-.89-.35-.5-.27-.12.44-.48 0-.68.06-.26.31.16.35-.16z"/><path class="cls-8" d="M49.36 51.36c-.33-.3.39.08.7-.16-.08.59-.78.59-.7 1.35-.69.24.57-1 0-1.19m.18 3.04c-.33 0-.85-.16-.89-1 .16.07.32.14.36.33.15 0 .17-.06.18-.17.48.16-.35.63.35.68zM34.6 55.91c1.53-.39 3.81-.06 5.62-.17-1.46-.5-4.15.17-5.62-.33 1.89.1 4.21-.22 5.8.16v.34zm-3.69-3.36c0 .78-.89-.79-.17-.85.38 0 .08.6.17.85m-3.68 3.36c0-.2 0-.3.17-.34.31.14 2.42-.72 3-.16 0 0-2.74.09-2.81.16.29-.28 2.42.4 3 .34zM25 52.88c.25.15.55.25.52.67.13-.26.56-.25.53-.67.31 0 0 1.09-.35 1.52a3 3 0 01-.7-1.52m-1.11 3.03c-.21-.25-.22-.69-.53-.84.08-.42.68 0 .53.34.14 0 .18-.17.35-.17 0 .32.2.37.18.67zm-5.09-.17c-.09-.25-.26-.42-.36-.67.57-.14.67.14.88.33 1.14.1 3.61-.2 3.87.17-1.36-.1-3.14.2-4.22-.17.73.89 3.38-.09 4.39.51-1.47-.1-3.37.2-4.56-.17m.52 3.03c-.28 0-.3-.16-.52-.17-.51.1.27.26.17.5s-.4-.78-.7 0c-.4.35.28-.72.53-.83.23.06.27.3.52.33z"/><path class="cls-7" d="M19.32 58.77v-.17a12.6 12.6 0 011.94 1.85c-.75-.46-1.19-1.22-1.94-1.68"/><path class="cls-8" d="M26.52 64.16c0 .16-.21.13-.34.17s.21.12.34.16c-.39.64-.46-.42-1.05-.16.2.2.16.34-.18.33 0-.3.22-.35.18-.67.36.1.57.48.88.17zm4.75 2.19h.17c.1.25.26.42.36.67 2.28-.34-.93 1-.53-.67m5.09 1.18h.18c.06.28-.14.31-.35.33.11.61.88-.45.7.34a3.92 3.92 0 00-1.41 0c.08.15.16.3.35.33.05.61-.54-.72-1-.67-.2-.53.65.37 1.23.17-.42-.63.27.13.35-.5m5.59.33h.36c0 .23.44.14.7.17 0 .24 0 .47.17.5-.17.11-.88 0-1.4.17 0-.37.44-.36.87-.34-.25-.44-1.13-.08-1 .34-1.39 0-1.85-.31-2.11-.17h-.35c.31-.82 2.48.13 2.81-.67m9.07-1.51h.17c.73 0 0 .11 0 .33.12.22.47-.08.88.17.36-.19.37-.18.17.17-1.16-.35-.38.15-1.22.34.23-.23.23-.63-.18-.68 0-.14.18-.17.18-.33"/><path class="cls-8" d="M52.17 66c0-.13.15-.2.35-.17.07.32.38.42.35.84-.27-.38-.36-.31-.88-.17-.09-.24.69-.41.18-.5m8.43-4.87c0-.19.2-.27.35-.34-.06.28.14.32.36.34 0 .2-.33.14-.53.16-.22.55.57.14.35.68a.76.76 0 00-.53-.16c-.24-.39.46-.64 0-.68m4.04-4.04c0-.17.14-.2.17-.34.7 0 .54-.72 1.23-.67.26-.33-.58.93-1.23.84.06.19.62.86.54.17.37.25-.13.41.17.84-.36-.3-.35.12-.71-.17 0-.19.18-.09.18 0 .48-.15-.15-.62-.35-.67m2.46-3.54a.45.45 0 01.35-.5c0 .3.22.36.18.68.2-.06.89-.59.17-.52 0-.22.73-.31 0-.33.71-.48.28.61.53.67 0 .25-.53.06-.53.34a.47.47 0 01-.35-.5c-.14 0-.17.16-.35.16m.53-4.37c.23-.09.07.84-.36.67a.72.72 0 00.18-.5c-.74.58-.55.51-.88-.34.32.46.6 0 .88.34.15 0 .16-.07.18-.17m-1.94 3.53c-.19-.11-.26-1.17.53-1.18 0 .52-.38.76-.53 1.18m-2.45 2.7c-.16 0-.17.06-.18.16-.33 0 .14-.63.18-.84.19.05.11.33.34.34 0 .16-.21.13-.34.17s.21.13.34.17c0 .21-.34.16-.34 0m-4.93-.17c1.13.46 3.46-.08 4.23.16-.67-.21-1.57.45-3.52.17-.4 0-.66 0-.71.34-.13 0-.2-.14-.17-.34s.15-.2.17-.33m-.52-2.53c-.23-.06-.27-.3-.53-.34.56-.37.74-1.17 1.58-1.37 0 .15-.06.17-.17.18-.37 0 .25.45-.18.67s-.84.2-.7.84m-.53-1.82a1.36 1.36 0 001.05 0c0 .33-.47.21-.35.66-.21-.58-.66-.17-.7-.66m5.98-.35c0 .61-1.22.2-.7-.17h-.36c-.31-.44.74.16 1.06.17m8.08-4.37c0-.19.19-.26.35-.34a.73.73 0 00-.18.51c.15 0 .17-.07.18-.17-.06.23.41.69.17 1-.68-.66-.5-.23-.52-1m.87-.84c.12-.46.51-.64.71-1 .4 0 .66 0 .7-.34.28.06-.15.29.17.34 0 .19-.17.09-.17 0-.41.3-.8.54-1.41 1m-.87-6.91a.75.75 0 00.35-.67c.31.12.54.19.7 0 .22.25 0 .84-.35.84 0-.3.21-.35.17-.67a1 1 0 00-.7.67c-.11 0-.2 0-.17-.17m4.56-4.4a.48.48 0 00.53.33c0 .17-.22.13-.35.17 0 .14.17.17.17.34.3.06.34-.13.36-.34.31.12 0 .31 0 .51-.48.12-.36-.34-.71-.34.05.25-.39.54-.88.17 0-.14.18-.17.18-.34.36-.05.34-.45.7-.5m1.58-3.51c.25 0 .5 0 .53-.17.62 0-.37.56.18.51-.16.46-.33-.45-.88-.17 0-.19 0-.3-.18-.34.06-.23.31 0 .35.17m-17.39.67c.33-.55 0-.14-.35 0-.25.46.31-.82.7-.84-.22.23-.1.51.18.68 0 .14-.06.16-.18.16zm-7.9-1.84c.57.2.13-.55.7-.34v.5c-.48-.48-.4.33-.7.51zm-1.05-5.56c1.3.38 3.32.07 4.91.17a.7.7 0 00.88 1c0 .81-1.49-.23-1-.67-1.13-.61-3.91.37-4.74-.51m6.09 1.86a1.9 1.9 0 01.53 1.39c-.21.5-.15-.62-.71-.34-.12-.51.31-.49.18-1M58.84 30c-.43-.15-.55-.59-.88-.84 0-.18.36-.11.36-.34h.17a2.6 2.6 0 01.35 1.18m.88-2.7a.78.78 0 00-.17-.51c.47-.12.34.35.52.51.36 0 .23-.46.71-.34.41.62-.22-.07-.53.34 0 .13.18.16.18.34.41.36-.45-.3-.71-.34m-.88-2.19a.47.47 0 00.35-.51c.43.15.47.68.53 1.18-.15 0-.16-.07-.17-.17-.17 0-.14.21-.18.34h-.18c0-.42-.27-.52-.35-.84m-.35-1.01c0-.17-.14-.2-.18-.34 1.19-.55 3.84.31 4.75-.5h.18c-.17.51-.79.45-.35.84h-4.4m4.22-.34c-1.35.11-3.16-.22-4.22.17 1.35-.11 3.16.22 4.22-.17m1.93 1.18c-.29.31-.49 1.57.35 1.51.2 0 .1.17 0 .17s-.1.17 0 .17c.17.36-.52-.39-.88.17.44-.56 0-1 0-1.85.82.15-.11-.56.35-.51.14 0 .21.15.18.34m3.16 1.85c.6-.68.24 1.28 1.41.67.11.28.12 1.92-.88 1.69.23-.35.85-.31.7-1-.4-.29-.56-.81-1-1 0-.17-.14-.21-.18-.34m-1.45-2.54c.22-.58 1.13.45 1.23 0 .36.54-.66.13-1.06 0 .31.58 1.67.63 1.06 1.85-.33-.41.15-.91-.53-1.18-.24.06 0 .29.17.33-.07.25-.15 0-.35 0-.15-.34-.53-.49-.52-1m-2.11-2.7c.38 0 .56-.14.52-.5.53.4.84.68.54 1.18-.27-.15 0-.26-.18-.68-.37-.07-.47.12-.71.17s-.2 0-.17-.17m-1.58-2.52c.38-.4 0 .41-.17.5.16-.17.64-.05.52-.5a.87.87 0 00.52.17c-.35.18-.91.61-1.22.33.06-.22.3-.26.35-.5m-10.19-5.89c.4-.3-.13-1-.7-.34-.67-.39.66-.25.52-.67.32.43 1 .72.36 1.18-.11 0-.21 0-.18-.17M49 11.14c0-.14.18-.17.18-.34h.35c-.23.78.74.43.35 1-.34.41-.81-.45-1.41-.34.11-.41.83 0 .88.17.44-.07 0-.65-.35-.5"/><path class="cls-6" d="M58 23.26c1.53-.39 3.81-.06 5.62-.17 0 .17.15.2.18.33a.87.87 0 00-.52-.16H58z"/><path class="cls-9" d="M42 23.26h.18v5.38c-.15 0-.17.07-.18.17-.47-.1-1.39.22-1.58-.17H42z"/><path class="cls-6" d="M33.2 23.59a.71.71 0 01.18-.5h7.2v.17h-.18c-2.3.2-5.47-.43-7.2.33"/><path class="cls-8" d="M30 12.65c0 .64-1.34.12-.18.17 0-.16-.77-.45-.7-.17-.42-.43.65-.29.88 0m4.25 8.08c.62 0 .14.76.18 1h-.53a3.55 3.55 0 00.35-1"/><path class="cls-5" d="M36.71 15.85A7.21 7.21 0 0140.05 13h.35v8.75h-6c0-.25.44-1-.18-1A25.76 25.76 0 0136 17c.08.15.15.3.35.33 0-.19 0-.3-.17-.33.22-.42.68.33.88.5.33 0-.31-.65.34-.67-.3.22-.83-.25-1.22-.17.15-.13.1-.46.35-.5 0 .21.35.16.35 0 .26.07-.07.21 0 .5.3-.15.32-.59.52-.84a.5.5 0 01-.7 0"/><path class="cls-8" d="M36.19 16.69c.39-.07.92.39 1.22.17-.65 0 0 .66-.34.67-.2-.17-.66-.92-.88-.5.13 0 .2.14.17.33-.2 0-.27-.18-.35-.33s0-.3.18-.34m.35-.5c0-.14.17-.18.17-.34a.48.48 0 00.7 0c-.2.25-.22.69-.52.84-.07-.29.26-.43 0-.5 0 .16-.31.21-.35 0m8.78-.85c-.44.16.47.87-.35.85 0-.22.22-.24.18-.51-.26.37-.44-.21-.53.17-.45 0 .24-.29 0-.68.29.58.32.47.7 0z"/><path class="cls-5" d="M42.51 13a6.59 6.59 0 012.81 2.18c-.38.47-.41.58-.7 0 .24.39-.45.64 0 .68.09-.38.27.2.53-.17 0 .27-.17.29-.18.51.82 0-.09-.69.35-.85a4.31 4.31 0 011.41 2.19c-.41.08-.48.75-.88.34.18.62.53.75 0 .84 1 .54-.14-1 .88-.84.07.41-.33.36-.18.84.33 0 .12-.55.52-.51h.18a25.52 25.52 0 001.41 3.38c-1.64.39-4 .05-6 .16.41-2.42.07-5.55.18-8.25-.52 2.37.17 5.89-.35 8.25h-.17c.18-2.37.51-6.32-.18-8.41-.07-.29.13-.32.35-.34"/><path class="cls-8" d="M46.73 17.53c.19 0 .11.33.34.33v.34c-.4 0-.19.49-.52.51-.15-.48.24-.43.18-.85-1-.12.08 1.39-.88.85.53-.09.18-.22 0-.85.4.42.47-.26.88-.33m-4.22 4.21c.52-2.36-.17-5.88.35-8.25-.11 2.7.23 5.83-.18 8.25z"/><path class="cls-8" d="M42.16 13.49v-.16c.69 2.09.36 6 .18 8.41h-.18v-.17a37.63 37.63 0 000-8.08"/><path class="cls-9" d="M52.7 18.2a9 9 0 01-1.76-1.68 10 10 0 011.76 1.68"/><path class="cls-5" d="M47.25 15.17c-.47-.38-.61-1.09-1.23-1.34.74-.26 1.74.68 2.46 1 .63.51-.7.57-.17.5.24.06 0 .3-.18.34.11.18.41.18.35.51.18-.36 0-.69.35-1.18a14.12 14.12 0 012.11 1.51 9 9 0 001.76 1.69c.18.45.69.57.88 1-.36.29-.35-.13-.71.16a.81.81 0 010 .85c.44-.1.63-.42.88-.68h.18c.24.61.76 1 1 1.52-.2 0-.31 0-.35-.17-.45 0 .24.29 0 .67-.21 0-.31 0-.35.17h-4c-.45-2.43-1.7-4.1-2.64-6.06.66-.09-.23-.18.18-.84-.15.14-.48.1-.53.33m2.81 1c.27.6-.21.74.53.84-.16 0-.77.45-.35.5-.05-.53.5.43.52-.17-.57.13-.26-.33 0-.33 0 .26.52.12.18 0s-.93-.3-.52-.67c-.16-.1-.77-.51-.36-.17M51.64 18c-.09 0-.2.13 0 .16 0-.09 0-.2.18-.16 0 .23 0 .64.17.33.09-.73-1-1.79-.35-.33"/><path class="cls-8" d="M48.48 14.84c.15 0 .18.17.36.17-.35.49-.18.82-.36 1.18.06-.33-.24-.33-.35-.51.19 0 .42-.28.18-.34-.53.07.8 0 .17-.5m1.94 1.52c-.41.37.3.42.52.67s-.19.26-.18 0c-.27 0-.57.46 0 .33 0 .6-.57-.36-.52.17-.42-.05.19-.45.35-.5-.74-.1-.26-.24-.53-.84-.41-.34.2.07.36.17M52 18.37c-.13.31-.18-.1-.17-.33-.15 0-.17.07-.18.16-.2 0-.09-.16 0-.16-.65-1.46.44-.4.35.33m1.75 1.18c-.25.26-.44.58-.88.68a.81.81 0 000-.85c.36-.29.35.13.7-.16 0 .13.18.16.18.33m.53 2.19c0-.13.14-.2.35-.16.24-.39-.45-.64 0-.68 0 .13.15.19.35.17s.11.46.35.51c0 .36-.74.06-1 .16m-6.73-6.06a1.26 1.26 0 01-.35-.51c0-.23.38-.19.53-.33-.41.66.48.75-.18.84"/><path class="cls-5" d="M59.37 19.22c1.15.58 1.79 1.65 2.81 2.35-1.35.39-3.45.06-5.1.17a21 21 0 00-6.14-7.07c1-.17 2.34.8 3.34 1.18-.74.88.16.43-.17 1.35.14-.12.67-1 0-.85 0-.58.47 0 .52-.34a14.5 14.5 0 014 2.7c-.05.44.68.13.53.67-.48 0-.36.28-.71 0 0 .5 1 .45.88-.16m-3.16-.34c-.18.23-.29-.07-.52.34.06-1.48-.69-.36.17.16 0-.2.19-.1.35 0-.07-.29.26-.43 0-.5"/><path class="cls-8" d="M54.63 16c-.05.35-.48-.24-.52.35.68-.12.14.72 0 .84.34-.92-.57-.47.17-1.35.14 0 .17.16.35.16m4.04 2.71c.44 0 .55.26.7.51.17.61-.86.66-.88.16.35.28.23 0 .71 0 .15-.54-.58-.23-.53-.67m-2.46.67c-.16-.1-.32-.2-.35 0-.86-.52-.11-1.64-.17-.16.23-.41.34-.11.52-.34.26.07-.07.21 0 .5m6.33-1.85c.49.17-.06.72 0 1-.31 0-.7-.95-.71-.17-.51-.14-.2-.25-.18-.67.37.21 1.08.94.89-.17"/><path class="cls-5" d="M18.27 19.89c-.18 0-.21.13-.35.17.26-.4.43-.38 0-.68.22 0 .24-.21.52-.16-.18-.59-.49-.94-.17-1.52.33.34.17.72.35.84 0-.2.2-.1.35 0a8.18 8.18 0 00-.7 1.35m13.17 3.37c.54.25-.14.73 0 1.17h-.17c-.05.26-.29 0-.36-.16.18-.27.17-.69.53-.34 0-.46-.29-.34 0-.67"/><path class="cls-8" d="M52.17 26c.57-.7.11 1 .7.84-.79 1.57-.09.39-.7-.84m-3.34 0a.8.8 0 01.36.84c-.71 0-.47-.44-.36-.84m8.96 2c.27-.23.06.47 0 .84-.26-.2-.78-.15-.71-.67.56.4.63.38.71-.17m8.43.31c.38.19.22.91 1 .67-.31.31-1.13.6-1.23-.17a1.26 1.26 0 00-.35.51c-.19 0-.09-.17 0-.17 0-.3-.21-.36-.17-.68.17 0 .14.21.17.34s.14-.2.18-.34c.36.05.17.63.53.68.44-.12-.33-.45-.18-.84m-50.01 1.01c-.52-.25.41-.13.18.33 2.87.39 6.5.06 9.66.17.36-.19.37-.18.18.17-3.29-.11-7 .22-10-.17zm44.97.5s1.21-.37.7.17c.68.18.63-.6 1.06-.17 0 .18-.35.11-.35.34a2.88 2.88 0 01-1.41-.34"/><path class="cls-6" d="M37.24 50.35c-.53.27-.46-.86-.17-.84v.68h11.24c0 .16-.22.13-.36.16H37.24z"/><path class="cls-7" d="M20.9 44.3a16.82 16.82 0 01-3.33 3 .83.83 0 01.52-.5 22.51 22.51 0 002.64-2.52z"/><path class="cls-9" d="M20.9 44.13c1-.75 1.77-1.78 2.81-2.53v.16c-1 .76-1.77 1.79-2.81 2.54z"/><path class="cls-8" d="M29.68 31c.4.07-.53.9.18 1.34-.83-.16 0-.87-.88-1 .05-.22.53-.23.53 0 .17 0 .14-.21.17-.34m-2.28 1.34c-.17 0-.13-.2-.17-.33-.13.74 1.87.32 1.58.67-.53 0-1.37.19-1.41-.34m49.89 1.18c-.05.35-.47-.25-.53.34-.46.31.28-.59.35-.84.45.29.68-.26.7.34-.34-.19-.89-.08-.52.16"/><path class="cls-5" d="M24.42 34.7a3.15 3.15 0 01.7-1c.21 0 .42.05.35.34-.62 0-.34.79-1 .67m5.53.83a.82.82 0 01.87-.84 2.27 2.27 0 01-.87.84"/><path class="cls-8" d="M50.42 35c0-.14.06-.16.17-.17h.35c-.22.13-.41 1.08-.35.67-.22 1.55-.46.64-.17-.5m20.02.88c-.34.07-.14.65-.71.5.16-.29.43-.49.53-.84.21.05.51 1 .53.17.54.16-.08.57-.18.67-.39-.09.22-.25-.17-.5m-2.99.5c.2 0 .1.17 0 .17.15.25.57.25.88.34-.08.77-1 .13-.53.34.66-.1-.38-.69-.35-.17-.19-.15-.12-.38 0-.68m-30.21 1.69c.11 0 .21 0 .17.16.33 0 .12-.57.36-.67.48 0 .35.28.7 0v.17c-.16.1-.31.2-.35 0-.37.05-.35.45-.53.67-.23-.2-.27-.06-.52 0 0-.19 0-.29.17-.33"/><path class="cls-5" d="M37.24 38.07c.49-.43.6-1.22 1.41-1.35a1.06 1.06 0 01-.18.84c-.35.28-.22 0-.7 0-.24.1 0 .65-.36.67 0-.13-.06-.15-.17-.16"/><path class="cls-5" d="M37.07 38.4c.25-.06.29-.2.52 0 .18-.22.16-.62.53-.67 0 .2.19.1.35 0a31 31 0 00-.88 5.39h-3c0-.17-.21-.14-.35-.18a.92.92 0 00.18-1.17c-.57.37-.1.38 0 .84-.76-.16-.32-.19-.35.51h-1.22a62.89 62.89 0 014.22-4.72m.17 2c-.54-.54.91-1.71.35-1.68-.2.43-1.21 1.29-.35 1.68"/><path class="cls-8" d="M34.08 43.12c0-.7-.41-.67.35-.51-.1-.46-.57-.47 0-.84a.92.92 0 01-.18 1.17c.14 0 .35 0 .35.18zm3.51-4.38c.56 0-.89 1.14-.35 1.68-.86-.39.15-1.25.35-1.68m-14.75 1.18c.42-.05 1.18.93.52.84.14-.58-.71-.21-.52-.84M56 45c-.21-.19-.06-.43 0-.17.3.06.34-.13.36-.33.24.21.49.82.69.16.23-.34.08.7 0 .85-.37-.32-.4-.86-1-.51"/><path class="cls-6" d="M33.2 55.41c.1.51.67.59 1.4.5h6a15.42 15.42 0 01-3.87.17c-1.32 0-3.29.47-3.51-.67"/><path class="cls-10" d="M66.22 51.53A3.51 3.51 0 0169 49.35c-.28 1.46-1.16 2.36-1.58 3.7a.45.45 0 00-.35.5c-.78 1.05-1.45 2.2-2.29 3.2 0 .14-.17.17-.17.34-1.25 1.21-2.35 2.57-3.69 3.7-.15.07-.31.15-.35.34a37.89 37.89 0 01-8.08 4.71c-.2 0-.31 0-.35.17-.31.09-.73.08-.88.34h-.17a29.66 29.66 0 01-8.78 1.51H42a22.81 22.81 0 01-5.45-.33h-.17a27.06 27.06 0 01-4.92-1.18h-.17c-1.64-.69-3.29-1.35-4.77-2.19h-.17a46.4 46.4 0 01-5.09-3.71 12.6 12.6 0 00-1.94-1.85 23.27 23.27 0 01-4.56-6.6v-.17h1.58a24.25 24.25 0 002.11 3.2c.09.25.25.42.35.67s.17.17.17.34c1.65-.11 4.67.21 5.45-.17 0-.3-.22-.35-.18-.67a9.93 9.93 0 01-1.23-3v-.34h1.41c.38.14.14.87.53 1a3 3 0 00.7 1.52c0 .64.59.77.53 1.51v.17h5.62c0-.24 0-.48-.18-.51-.34-.9-.38-2.1-.71-3-.09-.25.21-.88-.17-.85a14.87 14.87 0 01-.35-2.52H32c.36 2.12.79 4.17 1.23 6.23.22 1.14 2.18.67 3.51.67a15.42 15.42 0 003.87-.17V51.7H42v4.21a31 31 0 007.21 0 3.58 3.58 0 01.35-1.51v-.17a9 9 0 01.7-2.53h1.4a18.22 18.22 0 01-.88 4.21 17.79 17.79 0 005.45 0c.6-1 1-2.18 1.58-3.2-.15-.64.37-.65.7-.84h1.06c-.08 1.44-.79 2.28-1.24 3.37 0 .13-.17.17-.17.33-.17 0-.13.21-.18.34a18.91 18.91 0 005.62 0c.69-1.08 1.51-2 2.11-3.2.15-.42.49-.66.53-1.18m-41.45 5.9c-1.23.19-4.13-.41-4.22.33a10 10 0 001.76 1.68c2.67 2 5.82 4.42 9.31 5-.35-.28-.88-.39-1.06-.83A9.34 9.34 0 0028.81 62c-.86-.64-1.3-1.67-2.11-2.35v-.35c-.5-.3-.67-.92-1.05-1.34-.19-.16-.06-.62-.53-.5zm7.55.5c-.69-1.13-3.53-.2-5.09-.5A17.73 17.73 0 0033 63.66c0 .1 0 .19.18.16.78.54 2.12 1.45 3 1.34a30.65 30.65 0 01-3.34-5.54v-.35c0-.21-.23-.23-.18-.5-.18-.22-.17-.62-.35-.84m2.11-.5c-.21 0-.5 0-.53.16.46.91.73 2 1.23 2.86 0 .14 0 .34.18.34a10.38 10.38 0 002.28 3.54c0 .1 0 .19.18.16a4.69 4.69 0 002.28 1.69c1.09.19.28-2.88.53-4-.12-1.52.23-3.48-.18-4.71h-6zm7.73 0c-.41 2.64-.06 6-.18 8.92.14 0 .35 0 .36-.17 3.27-1.29 4.64-4.41 5.79-7.74.14 0 .2-.14.18-.34s.24-.32.17-.67h-6.31zm8.6 0h-.34c-.7 1.8-1.45 3.55-2.29 5.21 0 .24-.29.29-.35.51-.28.77-1.86 2-1.41 2.36.16-.42.86-.31 1.06-.68a.78.78 0 00.7-.34 18.25 18.25 0 007.2-7.06h-4.56zM56.56 62A18 18 0 0062 57.43h-4.92c-.57 1.35-1.6 2.27-2.27 3.53-.31.22-.7.35-.7.85-1.11.92-2.11 1.89-3.17 2.85a18 18 0 005.27-2.52c.13 0 .35 0 .35-.17"/><path class="cls-6" d="M18.8 55.74c1.19.37 3.09.07 4.56.17h1.06c-.78.38-3.8.06-5.45.17 0-.17-.14-.2-.17-.34"/><path class="cls-8" d="M50.94 51.7c.14-.56.69-1.36 1.23-1-.65.24-.58.46-1.05 1zm1.76-1.18h.17c0 .19 0 .3.18.35a.82.82 0 01-.71.33c0 .2.33.14.53.16-.07.38-.93.13-1 0a.88.88 0 01.83-.36zm3.86 4.21c-.31-.12 0-.31 0-.5-.29 0-.3.16-.53.17 0 .19 0 .29.18.33-.2.54-.5-.16-.35-.5.29.06.33-.13.35-.34.14.12.48.26.53 0 .53.21-.13.64-.18.84M51.82 52a.87.87 0 01.52-.17c0 .43-.12.21-.35.17.8.33 0 1.63.35.67 0-.21-.35-.17-.35 0-.19 0-.09-.17 0-.16a.8.8 0 01-.17-.51m-2.99-.8c.53.28.2.61.18 1.17-.46-.22-.34-.74-.18-1.17m-35.3.8c-.08-.48.65.42.7-.17.39.09-.21.26.17.5.11.41-.77-.56-.35 0-.07.25-.22-.06-.52 0 .11-.14.21-.29 0-.33m29.15 3.41c-.61.3-.25-1.78-.34-2.53.31-.73.12 1.73.17 2.36 0 .14.07.16.17.17"/><path class="cls-6" d="M20.56 57.76a10 10 0 011.75 1.68 9.61 9.61 0 01-1.75-1.68m10 5.9A10.78 10.78 0 0128.81 62a9 9 0 011.75 1.69"/><path class="cls-5" d="M20.56 57.76c.08-.74 3-.14 4.21-.34-.59.33-2.66.14-3 .17s.34.56.53.68c-.08-.15-.15-.3-.35-.34.74-.52 3.17.24 3.16-.51.47-.11.34.35.53.51-.28.62.25 1.06.88 1.51-.81.86.22.88.87 1.19-.09-.34-1.39-.63-.7-1 .81.68 1.25 1.71 2.11 2.35a10.08 10.08 0 001.76 1.69c.17.44.7.55 1.05.83-3.49-.63-6.64-3.06-9.31-5a10 10 0 00-1.75-1.68m7.19 4.05c.23.41-.09.52.18.66 0-.17.23-.13.18.17a1.14 1.14 0 011.22.68c-.09 0-.19.13 0 .16.49-.55-.46-.73-.35-1-.3.33-1-.33-1.23-.66m-5.43-2.78c-.29-.33 0-.2 0-.66a.83.83 0 01-.88-.85h-.35c0 .19-.26.27 0 .34.33-.46-.24.51.35 0 .69.92.34 1 1.41 1.34.12-.56-.37-.26-.53-.17"/><path class="cls-8" d="M25.12 57.43c0 .74-2.42 0-3.16.5.2 0 .27.18.35.34-.19-.12-.91-.56-.53-.68s2.4.16 3-.16zm.53.5c.38.42.55 1 1.05 1.34v.35c-.69.38.61.67.7 1-.65-.31-1.68-.33-.87-1.19-.63-.45-1.16-.89-.88-1.51M29 62.47c-.11.28.84.46.35 1-.19 0-.09-.16 0-.16a1.13 1.13 0 00-1.22-.68c.05-.3-.17-.34-.18-.17-.27-.14.05-.25-.18-.66.2.33.93 1 1.23.66"/><path class="cls-8" d="M22.84 59.27c-1.07-.35-.72-.42-1.41-1.34-.59.51 0-.46-.35 0-.26-.07 0-.15 0-.34h.35a.82.82 0 00.88.84c0 .47-.29.34 0 .67.16-.1.65-.39.53.17"/><path class="cls-5" d="M33 63.66a17.73 17.73 0 01-5.79-6.23c1.56.3 4.4-.63 5.09.5-.94-.73-3.23-.16-4.74-.34 1.11.39 3 .06 4.39.17-.37.72.12 1.34.7 1-.05.27.17.29.18.5-.49.58-.73.47-.7 1.36.47-.64.33-.24.52-1h.18a30.65 30.65 0 003.34 5.54c-.87.11-2.21-.8-3-1.34.86-.29.23-.34 1-.67-.27-.5-.78.62-1.23 0 0 .24.75.53 0 .51m-.7-1.35c.48-.27 1 .19 1.23 0-.19 0-.14.21.18.16.19-.7-1.8-.52-1.41-.16"/><path class="cls-8" d="M32.67 58.77c-.58.33-1.07-.29-.7-1-1.41-.11-3.28.22-4.39-.17 1.51.18 3.8-.39 4.74.34.18.22.17.62.35.84m.18.49v.35h-.18c-.19.77-.05.37-.52 1 0-.89.21-.78.7-1.36m.15 4.4c.75 0 0-.27 0-.51.45.62 1-.5 1.23 0-.82.33-.19.38-1 .67-.15 0-.16-.06-.18-.16m1.38-6.23h.17c.65.67 5.11-.33 5.62.16-.27-.25-2.36.17-2.63.17-.93 0-3 .21-3.16-.33"/><path class="cls-5" d="M37.77 64.49c.36.09.37-.65.17-.16-.49-.23.56-.55.35.16.63-.33-.24-.56.36-1.17-.23.45-.86.53-1.06 1a10.38 10.38 0 01-2.28-3.54c.3.22.81-1 .52-1.52-.31.25.18.82-.35 1.18h-.35c-.5-.86-.77-2-1.23-2.86 0-.19.32-.14.53-.16.15.54 2.23.33 3.16.33.27 0 2.37-.42 2.63-.17-.51-.49-5 .51-5.62-.16h5.8c-.23 2.8.46 6.49-.35 8.75a4.69 4.69 0 01-2.28-1.69"/><path class="cls-8" d="M37.59 64.33c.2-.48.83-.56 1.06-1-.6.61.27.84-.36 1.17.21-.71-.84-.39-.35-.16.2-.49.19.25-.17.16-.15 0-.17-.06-.18-.16m-2.28-3.55c-.18 0-.14-.2-.18-.34h.35c.53-.36 0-.93.35-1.18.29.49-.22 1.74-.52 1.52"/><path class="cls-5" d="M42.16 57.43h5.44c-.05.57-.35 1 .53 1-1.15 3.32-2.52 6.45-5.79 7.74-.42-2.58-.07-5.9-.18-8.75m3.69 4.88h.35c.1 0 .21 0 .17-.17-.21-.17-.17-.68.18-1-.35-.06-.35.22-.53.34 0-.1-.14-.2-.17 0 .47.27.26.53 0 .84m1.4-4.55c-1-.39-2.75-.06-4-.17-.18 0-.2.14-.35.17-.41 2-.06 4.77-.18 7.07-.14.4.25.78.18.17 1.06-.37 0 0 0-.51.11-2.19-.23-4.81.18-6.73zm-4.74 7.4c-.11-2.18.22-5.71-.17-7.06.11 2.19-.23 5.71.17 7.06"/><path class="cls-8" d="M47.6 57.43h.18c0 .23 0 .47.17.5-.07.24-.15 0-.35 0 .15.49.27.19.71.17 0 .2 0 .29-.18.34-.88 0-.58-.44-.53-1m-1.75 4.03c0-.2.17-.1.17 0 .18-.12.18-.4.53-.34-.35.33-.39.84-.18 1 0 .13-.07.16-.17.17h-.35c.26-.31.47-.57 0-.84M43 57.76c-.41 1.92-.07 4.54-.18 6.73 0 .48 1.06.14 0 .51.07.61-.32.23-.18-.17.12-2.3-.23-5 .18-7.07.15 0 .17-.17.35-.17 1.29.11 3-.22 4 .17z"/><path class="cls-5" d="M47.78 57.43h.7c.07.35-.12.44-.17.67-.44 0-.56.32-.71-.17.2 0 .28.24.35 0-.2 0-.19-.27-.17-.5"/><path class="cls-8" d="M51.29 57.43c0 .64-.14.06-.53.16 0 .48.67.39.18.85a.67.67 0 01-.18-1zm3.16 0c0 .16-.14.19-.17.33h-2.81c.53-.5 2.28.17 2.81-.33z"/><path class="cls-5" d="M54.45 57.43h.88a18.25 18.25 0 01-7.2 7.06c-.06-.29.14-.31.35-.33-.44-.17-.67-.07-.7-.5-.58.25.36.4.17.83a.48.48 0 00-.52.34c-.2.37-.9.26-1.06.67-.45-.36 1.13-1.58 1.41-2.35.73.29.8.56.88-.34-.18.11-.19.39-.53.34.12-.14.27-.46 0-.51.84-1.66 1.59-3.42 2.29-5.21h.34a.67.67 0 00.18 1c.48-.46-.21-.37-.18-.85.38-.1.56.48.53-.16h3c-.54.5-2.28-.17-2.81.33h2.81c0-.14.17-.17.17-.33m-2.81 3.2a.77.77 0 01-.17.5c.23.41.53-.31.7.16-1.21.29-.08.57.17-.16-.72-.24-.5.09-.7-.5"/><path class="cls-8" d="M52.34 61.13c-.25.73-1.38.45-.17.16-.17-.47-.47.25-.7-.16a.77.77 0 00.17-.5c.2.59 0 .26.7.5m-4.91 3.7a.48.48 0 01.52-.34c.19-.43-.75-.58-.17-.83 0 .43.26.33.7.5-.21 0-.41 0-.35.33a.78.78 0 01-.7.34m.35-1.68c.06-.22.31-.27.35-.51.27 0 .13.37 0 .51.35.05.35-.23.53-.34-.08.9-.15.63-.88.34"/><path class="cls-5" d="M54.81 61c.67-1.26 1.7-2.18 2.27-3.53H62A18 18 0 0156.56 62c-.07-.25-.22.06-.53 0 0-.32.58-.12.53-.5s-.59-.11-.7-.34c.59-.34 1.4-.46 1.22-1.51-.46 1.17-1.83 1.41-2.45 1.67 0-.13.18-.16.18-.33m6.49-3.37h-3.16c.71.39 2.17.06 3.16.17.1.6.53-.59.18 0-.11 0-.21 0-.18-.17m-4.74 2.69c-.2 0-.19-.26-.17-.5-.44.21-.55-.08-.71.17.69.36-1 .61 0 .84-.17-.83.87-.24.88-.51"/><path class="cls-8" d="M61.48 57.76c.35-.59-.08.6-.18 0-1-.11-2.45.22-3.16-.17h3.16c0 .15.07.16.18.17m-5.79 3.03c-1-.23.68-.48 0-.84.15-.25.26 0 .7-.17 0 .24 0 .48.17.5 0 .27-1.05-.32-.87.51"/><path class="cls-8" d="M54.81 61c0 .17-.15.2-.18.33.62-.26 2-.5 2.45-1.67.18 1.05-.63 1.17-1.22 1.5.11.24.67 0 .7.35s-.51.18-.53.5c.31.06.46-.25.53 0s-.22.13-.35.17-.32-.21-.35 0c-.51-.1.27-.27.17-.51a.47.47 0 00-.34-.51c-.72.29-.64.55-1.41.51.27.54 1.18-.08.7.51.3.06.33-.14.35-.33.23-.53.23.47 0 .5h.36c-.41.37-1.09-.42-1.58-.5 0-.5.39-.63.7-.85"/><path class="cls-5" d="M54.11 61.81c.49.08 1.17.87 1.57.5h-.35c.23 0 .23-1 0-.5 0 .19 0 .39-.35.33.48-.59-.43 0-.7-.51.77 0 .69-.22 1.4-.5a.46.46 0 01.35.5c.1.24-.68.41-.17.51 0-.21.19-.11.35 0a18 18 0 01-5.27 2.52c1-1 2.09-1.93 3.17-2.85"/><path class="cls-8" d="M33.73 62.47c-.32.05-.37-.16-.18-.16-.24.19-.75-.27-1.23 0-.39-.36 1.6-.54 1.41.16M45 68c-.43 0 .59-.11.7.17.45.38-.68-.33-.52.33-.58-.1-.82.12-1.23.17-.42-.45.33-.81 0-.5-.11.6 1.54 0 1-.17"/><path class="cls-7" d="M40.05 13c0-.2.32-.14.53-.17-.12 2.92.23 6.28-.18 8.92V13z"/><path class="cls-9" d="M42.16 21.74a47.33 47.33 0 01-.16-7.07c0-.83-.34-2.08.53-1.68-.22 0-.42 0-.35.34v8.41z"/><path class="cls-10" d="M17 23.59c.13.61.58.91.7 1.52-.17 0-.13.2-.17.34-.15 0-.17.06-.18.16-.32.26-.41.73-.7 1v.17a3.27 3.27 0 00-.49 1.22c-.15 0-.16.06-.17.17-.19.32-.6.43-.88.67 0 .42-.28.52-.35.84a13.71 13.71 0 00-1.41 2.69c-.1 0-.2 0-.18.18a11.54 11.54 0 00-.87 1.84c-.38-.59.2-1.71.35-2.35 0-.4.3-.49.18-1a16 16 0 00.87-2v-.17a9 9 0 00.88-1.87c.07-.44.53-.51.53-1 .22-.29.59-.44.53-1 .15 0 .16-.07.17-.17a2.26 2.26 0 00.88-1.35H17z"/><path class="cls-5" d="M16.16 28a3.27 3.27 0 01.53-1.18h.17c.21 0 .19.27.18.51-.58-.05-.37.65-.88.67"/><path class="cls-9" d="M66.4 34.87a3.71 3.71 0 012.46 0z"/><path class="cls-6" d="M14.76 52c-.71-.47 1.47-.48 1.58-.17h-1.58zm9.66-.13H23v.34c-.85-.61 1.25-.7 1.41-.34m6.15 4.04c.37-.1 1.23.27 1.06-.34.2 0 .19.27.18.51h-5.62v-.17h4.38zm33.02 0a18.91 18.91 0 01-5.62 0c0-.13 0-.34.18-.34 0 .2 0 .3.17.34h5.27z"/><path class="cls-7" d="M40.05 66.18c.81-2.26.12-6 .35-8.75.41 1.23.06 3.19.18 4.71-.25 1.16.56 4.23-.53 4"/><path class="cls-9" d="M42.16 57.43c.11 2.85-.24 6.17.18 8.75 0 .16-.22.13-.36.17.12-2.92-.23-6.28.18-8.92"/><path class="cls-5" d="M58 23.26h5.1c-.91.81-3.56-.05-4.75.5 0-.24-.28-.29-.35-.5"/><path class="cls-10" d="M19.15 18.2a6.06 6.06 0 016.67-1.84.8.8 0 00.71.33c2.58 1 3.65 6 1.4 8.25-.15 0-.16.06-.18.17A8.55 8.55 0 0125 26.62h-2.34a6.28 6.28 0 01-4.22-3.2v-.16a4.83 4.83 0 01-.17-3.2v-.17a8.18 8.18 0 01.7-1.35c0-.14.18-.17.18-.34m3.33 10.27c-.13-.59 1.45-.39 1.59-.16s0 .3-.18.33c-.42-.1-1.27.21-1.41-.17"/><path class="cls-7" d="M53.57 50.52h4.75c0 .37-.75.08-1.06.17h-1.57c-.66-.1-1.76.22-2.12-.17"/></g></g></svg>